<svg width="238" height="62" viewBox="0 0 238 62" fill="none" xmlns="http://www.w3.org/2000/svg">
<path d="M31 31C31 19.402 40.402 10 52 10H62V52H52C40.402 52 31 42.598 31 31Z" fill="#FFF4D5"/>
<g filter="url(#filter0_i_928_38225)">
<path d="M27.0465 2.28496C29.4953 0.871097 32.5125 0.871096 34.9614 2.28496L53.8932 13.2153C56.3421 14.6291 57.8507 17.2421 57.8507 20.0698V41.9305C57.8507 44.7582 56.3421 47.3711 53.8932 48.785L34.9614 59.7153C32.5125 61.1291 29.4953 61.1291 27.0465 59.7153L8.11457 48.785C5.66569 47.3711 4.15712 44.7582 4.15712 41.9305V20.0698C4.15712 17.2421 5.66569 14.6291 8.11457 13.2153L27.0465 2.28496Z" fill="url(#paint0_linear_928_38225)"/>
</g>
<g filter="url(#filter1_f_928_38225)">
<path d="M27.0517 2.95158C29.5005 1.53772 32.5177 1.53772 34.9666 2.95158L53.3211 13.5486C55.77 14.9624 57.2786 17.5754 57.2786 20.4031V41.5971C57.2786 44.4248 55.77 47.0377 53.3211 48.4516L34.9666 59.0486C32.5177 60.4624 29.5005 60.4624 27.0517 59.0486L8.69713 48.4516C6.24825 47.0377 4.73968 44.4248 4.73968 41.5971V20.4031C4.73968 17.5754 6.24825 14.9624 8.69713 13.5486L27.0517 2.95158Z" fill="url(#paint1_linear_928_38225)"/>
</g>
<path d="M57.8494 23.0248V41.9291C57.8494 44.7568 56.3408 47.3697 53.8919 48.7836L34.9601 59.7139C32.5112 61.1278 29.494 61.1278 27.0452 59.7139L10.3359 50.0668L57.8494 23.0248Z" fill="url(#paint2_linear_928_38225)"/>
<path d="M57.8494 23.0248V41.9291C57.8494 44.7568 56.3408 47.3697 53.8919 48.7836L34.9601 59.7139C32.5112 61.1278 29.494 61.1278 27.0452 59.7139L10.3359 50.0668L57.8494 23.0248Z" fill="url(#paint3_linear_928_38225)"/>
<path d="M57.8494 23.0248V41.9291C57.8494 44.7568 56.3408 47.3697 53.8919 48.7836L34.9601 59.7139C32.5112 61.1278 29.494 61.1278 27.0452 59.7139L10.3359 50.0668L57.8494 23.0248Z" fill="url(#paint4_linear_928_38225)"/>
<g filter="url(#filter2_di_928_38225)">
<path d="M28.3643 4.85647C29.9969 3.9139 32.0083 3.9139 33.6409 4.85647L52.3243 15.6434C53.9569 16.5859 54.9626 18.3279 54.9626 20.213V41.7868C54.9626 43.672 53.9569 45.4139 52.3243 46.3565L33.6409 57.1434C32.0083 58.0859 29.9969 58.0859 28.3643 57.1434L9.68086 46.3565C8.04828 45.4139 7.04257 43.672 7.04257 41.7868V20.213C7.04257 18.3279 8.04828 16.5859 9.68087 15.6434L28.3643 4.85647Z" fill="url(#paint5_linear_928_38225)"/>
</g>
<path d="M54.9634 24.6663V41.7865C54.9634 43.6716 53.9576 45.4136 52.3251 46.3562L33.6416 57.143C32.009 58.0856 29.9976 58.0856 28.365 57.143L13.1055 48.3329L54.9634 24.6663Z" fill="url(#paint6_linear_928_38225)"/>
<g filter="url(#filter3_di_928_38225)">
<path d="M29.0239 6.47445C30.2483 5.76752 31.7569 5.76752 32.9813 6.47445L51.2519 17.0229C52.4763 17.7299 53.2306 19.0363 53.2306 20.4502V41.5472C53.2306 42.9611 52.4763 44.2675 51.2519 44.9744L32.9813 55.5229C31.7569 56.2299 30.2483 56.2299 29.0239 55.5229L10.7533 44.9744C9.5289 44.2675 8.77462 42.9611 8.77462 41.5472V20.4502C8.77462 19.0363 9.5289 17.7299 10.7533 17.0229L29.0239 6.47445Z" fill="url(#paint7_linear_928_38225)"/>
</g>
<path d="M29.0239 6.47445C30.2483 5.76752 31.7569 5.76752 32.9813 6.47445L51.2519 17.0229C52.4763 17.7299 53.2306 19.0363 53.2306 20.4502V41.5472C53.2306 42.9611 52.4763 44.2675 51.2519 44.9744L32.9813 55.5229C31.7569 56.2299 30.2483 56.2299 29.0239 55.5229L10.7533 44.9744C9.5289 44.2675 8.77462 42.9611 8.77462 41.5472V20.4502C8.77462 19.0363 9.5289 17.7299 10.7533 17.0229L29.0239 6.47445Z" fill="url(#paint8_linear_928_38225)"/>
<path d="M29.0239 6.47445C30.2483 5.76752 31.7569 5.76752 32.9813 6.47445L51.2519 17.0229C52.4763 17.7299 53.2306 19.0363 53.2306 20.4502V41.5472C53.2306 42.9611 52.4763 44.2675 51.2519 44.9744L32.9813 55.5229C31.7569 56.2299 30.2483 56.2299 29.0239 55.5229L10.7533 44.9744C9.5289 44.2675 8.77462 42.9611 8.77462 41.5472V20.4502C8.77462 19.0363 9.5289 17.7299 10.7533 17.0229L29.0239 6.47445Z" fill="url(#paint9_linear_928_38225)"/>
<path d="M32.9839 55.5237C31.7595 56.2306 30.2509 56.2306 29.0265 55.5237L10.7559 44.9752C9.53151 44.2683 8.77722 42.9618 8.77722 41.548L8.77722 20.451C8.77722 19.0371 9.53151 17.7306 10.7559 17.0237L29.0265 6.47522C30.2509 5.76829 31.7595 5.76829 32.9839 6.47522L51.2545 17.0237C52.4789 17.7307 53.2332 19.0371 53.2332 20.451L53.2332 41.548C53.2332 42.9618 52.4789 44.2683 51.2545 44.9752L32.9839 55.5237Z" fill="url(#paint10_linear_928_38225)"/>
<path d="M53.2297 25.6237V41.5472C53.2297 42.961 52.4754 44.2675 51.251 44.9744L32.9805 55.5229C31.756 56.2298 30.2475 56.2298 29.023 55.5229L14.8359 47.332L53.2297 25.6237Z" fill="url(#paint11_linear_928_38225)"/>
<path d="M15.9706 36.362C17.9076 34.516 20.1956 33.242 20.1956 31.799C20.1956 30.915 19.6496 30.304 18.8696 30.304C18.2066 30.304 17.5436 30.746 17.2576 31.383L15.5806 30.629C16.1526 29.355 17.5176 28.458 18.8696 28.458C20.8066 28.458 22.1716 29.836 22.1716 31.799C22.1716 33.723 20.5206 35.127 18.9476 36.362H22.3016V38.078H16.1006L15.9706 36.362ZM27.2108 36.453C28.6798 36.453 29.6028 35.231 29.6028 33.294C29.6028 31.357 28.6798 30.135 27.2108 30.135C25.7288 30.135 24.8058 31.357 24.8058 33.294C24.8058 35.231 25.7288 36.453 27.2108 36.453ZM27.2108 38.169C24.5198 38.169 22.8298 36.284 22.8298 33.294C22.8298 30.304 24.5198 28.419 27.2108 28.419C29.8888 28.419 31.5788 30.304 31.5788 33.294C31.5788 36.284 29.8888 38.169 27.2108 38.169ZM32.5009 36.362C34.4379 34.516 36.7259 33.242 36.7259 31.799C36.7259 30.915 36.1799 30.304 35.3999 30.304C34.7369 30.304 34.0739 30.746 33.7879 31.383L32.1109 30.629C32.6829 29.355 34.0479 28.458 35.3999 28.458C37.3369 28.458 38.7019 29.836 38.7019 31.799C38.7019 33.723 37.0509 35.127 35.4779 36.362H38.8319V38.078H32.6309L32.5009 36.362ZM43.5331 38.091V35.907H39.5031L39.3731 34.217L43.0651 28.38L44.7031 29.381L41.6481 34.217H43.5331V32.137H45.4831V34.217H46.4191V35.907H45.4831V38.091H43.5331Z" fill="#A36A00"/>
<g filter="url(#filter4_i_928_38225)">
<path d="M17.5014 18.4529C17.6332 18.1859 18.014 18.1859 18.1458 18.4529L18.5698 19.3121C18.6222 19.4181 18.7233 19.4916 18.8404 19.5086L19.7885 19.6464C20.0832 19.6892 20.2009 20.0514 19.9877 20.2593L19.3016 20.9281C19.2169 21.0106 19.1782 21.1295 19.1982 21.2461L19.3602 22.1904C19.4105 22.4839 19.1025 22.7078 18.8388 22.5692L17.9908 22.1234C17.8861 22.0683 17.7611 22.0683 17.6564 22.1234L16.8084 22.5692C16.5448 22.7078 16.2367 22.4839 16.287 22.1904L16.449 21.2461C16.469 21.1295 16.4303 21.0106 16.3456 20.9281L15.6595 20.2593C15.4463 20.0514 15.564 19.6892 15.8587 19.6464L16.8068 19.5086C16.9239 19.4916 17.025 19.4181 17.0774 19.3121L17.5014 18.4529Z" fill="#F1A219"/>
<path d="M17.5014 18.4529C17.6332 18.1859 18.014 18.1859 18.1458 18.4529L18.5698 19.3121C18.6222 19.4181 18.7233 19.4916 18.8404 19.5086L19.7885 19.6464C20.0832 19.6892 20.2009 20.0514 19.9877 20.2593L19.3016 20.9281C19.2169 21.0106 19.1782 21.1295 19.1982 21.2461L19.3602 22.1904C19.4105 22.4839 19.1025 22.7078 18.8388 22.5692L17.9908 22.1234C17.8861 22.0683 17.7611 22.0683 17.6564 22.1234L16.8084 22.5692C16.5448 22.7078 16.2367 22.4839 16.287 22.1904L16.449 21.2461C16.469 21.1295 16.4303 21.0106 16.3456 20.9281L15.6595 20.2593C15.4463 20.0514 15.564 19.6892 15.8587 19.6464L16.8068 19.5086C16.9239 19.4916 17.025 19.4181 17.0774 19.3121L17.5014 18.4529Z" fill="#F1A219"/>
</g>
<g filter="url(#filter5_i_928_38225)">
<path d="M24.0912 16.5258C24.223 16.2587 24.6039 16.2587 24.7357 16.5258L25.1597 17.385C25.212 17.491 25.3132 17.5645 25.4302 17.5815L26.3784 17.7193C26.6731 17.7621 26.7908 18.1243 26.5775 18.3322L25.8914 19.0009C25.8067 19.0835 25.7681 19.2024 25.7881 19.319L25.95 20.2633C26.0004 20.5568 25.6923 20.7807 25.4287 20.6421L24.5807 20.1962C24.476 20.1412 24.3509 20.1412 24.2462 20.1962L23.3982 20.6421C23.1346 20.7807 22.8265 20.5568 22.8768 20.2633L23.0388 19.319C23.0588 19.2024 23.0202 19.0835 22.9355 19.0009L22.2494 18.3322C22.0361 18.1243 22.1538 17.7621 22.4485 17.7193L23.3967 17.5815C23.5137 17.5645 23.6149 17.491 23.6672 17.385L24.0912 16.5258Z" fill="#F1A219"/>
<path d="M24.0912 16.5258C24.223 16.2587 24.6039 16.2587 24.7357 16.5258L25.1597 17.385C25.212 17.491 25.3132 17.5645 25.4302 17.5815L26.3784 17.7193C26.6731 17.7621 26.7908 18.1243 26.5775 18.3322L25.8914 19.0009C25.8067 19.0835 25.7681 19.2024 25.7881 19.319L25.95 20.2633C26.0004 20.5568 25.6923 20.7807 25.4287 20.6421L24.5807 20.1962C24.476 20.1412 24.3509 20.1412 24.2462 20.1962L23.3982 20.6421C23.1346 20.7807 22.8265 20.5568 22.8768 20.2633L23.0388 19.319C23.0588 19.2024 23.0202 19.0835 22.9355 19.0009L22.2494 18.3322C22.0361 18.1243 22.1538 17.7621 22.4485 17.7193L23.3967 17.5815C23.5137 17.5645 23.6149 17.491 23.6672 17.385L24.0912 16.5258Z" fill="#F1A219"/>
</g>
<g filter="url(#filter6_i_928_38225)">
<path d="M30.6811 15.5845C30.8129 15.3175 31.1937 15.3175 31.3255 15.5845L31.7495 16.4437C31.8019 16.5497 31.903 16.6232 32.0201 16.6402L32.9682 16.778C33.2629 16.8208 33.3806 17.183 33.1673 17.3909L32.4813 18.0597C32.3966 18.1422 32.3579 18.2611 32.3779 18.3777L32.5399 19.322C32.5902 19.6155 32.2821 19.8394 32.0185 19.7008L31.1705 19.2549C31.0658 19.1999 30.9408 19.1999 30.8361 19.2549L29.988 19.7008C29.7244 19.8394 29.4163 19.6155 29.4667 19.322L29.6287 18.3777C29.6486 18.2611 29.61 18.1422 29.5253 18.0597L28.8392 17.3909C28.626 17.183 28.7437 16.8208 29.0384 16.778L29.9865 16.6402C30.1035 16.6232 30.2047 16.5497 30.2571 16.4437L30.6811 15.5845Z" fill="#F1A219"/>
<path d="M30.6811 15.5845C30.8129 15.3175 31.1937 15.3175 31.3255 15.5845L31.7495 16.4437C31.8019 16.5497 31.903 16.6232 32.0201 16.6402L32.9682 16.778C33.2629 16.8208 33.3806 17.183 33.1673 17.3909L32.4813 18.0597C32.3966 18.1422 32.3579 18.2611 32.3779 18.3777L32.5399 19.322C32.5902 19.6155 32.2821 19.8394 32.0185 19.7008L31.1705 19.2549C31.0658 19.1999 30.9408 19.1999 30.8361 19.2549L29.988 19.7008C29.7244 19.8394 29.4163 19.6155 29.4667 19.322L29.6287 18.3777C29.6486 18.2611 29.61 18.1422 29.5253 18.0597L28.8392 17.3909C28.626 17.183 28.7437 16.8208 29.0384 16.778L29.9865 16.6402C30.1035 16.6232 30.2047 16.5497 30.2571 16.4437L30.6811 15.5845Z" fill="#F1A219"/>
</g>
<g filter="url(#filter7_i_928_38225)">
<path d="M37.267 16.5258C37.3988 16.2587 37.7796 16.2587 37.9114 16.5258L38.3355 17.385C38.3878 17.491 38.489 17.5645 38.606 17.5815L39.5541 17.7193C39.8489 17.7621 39.9665 18.1243 39.7533 18.3322L39.0672 19.0009C38.9825 19.0835 38.9439 19.2024 38.9639 19.319L39.1258 20.2633C39.1762 20.5568 38.8681 20.7807 38.6045 20.6421L37.7564 20.1962C37.6518 20.1412 37.5267 20.1412 37.422 20.1962L36.574 20.6421C36.3104 20.7807 36.0023 20.5568 36.0526 20.2633L36.2146 19.319C36.2346 19.2024 36.1959 19.0835 36.1113 19.0009L35.4252 18.3322C35.2119 18.1243 35.3296 17.7621 35.6243 17.7193L36.5724 17.5815C36.6895 17.5645 36.7907 17.491 36.843 17.385L37.267 16.5258Z" fill="#F1A219"/>
<path d="M37.267 16.5258C37.3988 16.2587 37.7796 16.2587 37.9114 16.5258L38.3355 17.385C38.3878 17.491 38.489 17.5645 38.606 17.5815L39.5541 17.7193C39.8489 17.7621 39.9665 18.1243 39.7533 18.3322L39.0672 19.0009C38.9825 19.0835 38.9439 19.2024 38.9639 19.319L39.1258 20.2633C39.1762 20.5568 38.8681 20.7807 38.6045 20.6421L37.7564 20.1962C37.6518 20.1412 37.5267 20.1412 37.422 20.1962L36.574 20.6421C36.3104 20.7807 36.0023 20.5568 36.0526 20.2633L36.2146 19.319C36.2346 19.2024 36.1959 19.0835 36.1113 19.0009L35.4252 18.3322C35.2119 18.1243 35.3296 17.7621 35.6243 17.7193L36.5724 17.5815C36.6895 17.5645 36.7907 17.491 36.843 17.385L37.267 16.5258Z" fill="#F1A219"/>
</g>
<g filter="url(#filter8_i_928_38225)">
<path d="M43.853 18.4529C43.9848 18.1859 44.3656 18.1859 44.4974 18.4529L44.9214 19.3121C44.9737 19.4181 45.0749 19.4916 45.1919 19.5086L46.1401 19.6464C46.4348 19.6892 46.5525 20.0514 46.3392 20.2593L45.6531 20.9281C45.5685 21.0106 45.5298 21.1295 45.5498 21.2461L45.7118 22.1904C45.7621 22.4839 45.454 22.7078 45.1904 22.5692L44.3424 22.1234C44.2377 22.0683 44.1126 22.0683 44.008 22.1234L43.1599 22.5692C42.8963 22.7078 42.5882 22.4839 42.6386 22.1904L42.8005 21.2461C42.8205 21.1295 42.7819 21.0106 42.6972 20.9281L42.0111 20.2593C41.7979 20.0514 41.9155 19.6892 42.2103 19.6464L43.1584 19.5086C43.2754 19.4916 43.3766 19.4181 43.4289 19.3121L43.853 18.4529Z" fill="#F1A219"/>
<path d="M43.853 18.4529C43.9848 18.1859 44.3656 18.1859 44.4974 18.4529L44.9214 19.3121C44.9737 19.4181 45.0749 19.4916 45.1919 19.5086L46.1401 19.6464C46.4348 19.6892 46.5525 20.0514 46.3392 20.2593L45.6531 20.9281C45.5685 21.0106 45.5298 21.1295 45.5498 21.2461L45.7118 22.1904C45.7621 22.4839 45.454 22.7078 45.1904 22.5692L44.3424 22.1234C44.2377 22.0683 44.1126 22.0683 44.008 22.1234L43.1599 22.5692C42.8963 22.7078 42.5882 22.4839 42.6386 22.1904L42.8005 21.2461C42.8205 21.1295 42.7819 21.0106 42.6972 20.9281L42.0111 20.2593C41.7979 20.0514 41.9155 19.6892 42.2103 19.6464L43.1584 19.5086C43.2754 19.4916 43.3766 19.4181 43.4289 19.3121L43.853 18.4529Z" fill="#F1A219"/>
</g>
<path d="M62.4464 10.4464H217C228.351 10.4464 237.554 19.6486 237.554 31C237.554 42.3514 228.351 51.5536 217 51.5536H62.4464V10.4464Z" fill="url(#paint12_linear_928_38225)"/>
<path d="M62.4464 10.4464H217C228.351 10.4464 237.554 19.6486 237.554 31C237.554 42.3514 228.351 51.5536 217 51.5536H62.4464V10.4464Z" stroke="#FFF4D5" stroke-width="0.892857"/>
<path d="M76.664 28.51H79.086V24.576H80.948V36.798H79.086V30.008H76.664V28.51ZM71.638 33.97L70.238 32.934L72.59 29.784C73.122 29.07 73.234 28.706 73.234 28.174V25.388H75.068V28.174C75.068 28.72 75.166 29.084 75.698 29.784L78.064 32.934L76.664 33.97L74.326 30.82L74.158 30.582L73.99 30.82L71.638 33.97ZM87.6286 29.252C85.5006 29.252 84.0166 28.23 84.0166 26.76C84.0166 25.276 85.5006 24.226 87.6286 24.226C89.7846 24.226 91.2826 25.276 91.2826 26.76C91.2826 28.23 89.7846 29.252 87.6286 29.252ZM83.5546 37.12V33.83H89.8266V33.27H83.5406V31.884H86.6906V31.1H81.9446V29.644H93.3406V31.1H88.5666V31.884H91.6606V35.132H85.4026V35.72H91.9966V37.12H83.5546ZM87.6426 27.754C88.7486 27.754 89.4766 27.362 89.4766 26.76C89.4766 26.144 88.7486 25.724 87.6426 25.724C86.5366 25.724 85.8226 26.144 85.8226 26.76C85.8226 27.362 86.5366 27.754 87.6426 27.754ZM105.348 24.59H107.126V36.77H105.348V24.59ZM102.87 24.786H104.62V36.21H102.87V30.106H102.24C101.96 31.828 100.798 32.976 99.2158 32.976C97.4238 32.976 96.1778 31.464 96.1778 29.322C96.1778 27.152 97.4238 25.626 99.2158 25.626C100.812 25.626 102.002 26.83 102.254 28.608H102.87V24.786ZM99.2158 31.324C100.014 31.324 100.532 30.526 100.532 29.322C100.532 28.09 100.014 27.292 99.2158 27.292C98.4458 27.292 97.9278 28.09 97.9278 29.322C97.9278 30.526 98.4458 31.324 99.2158 31.324ZM109.368 25.206H117.698V26.69H111.258V29H117.698V30.484H109.368V25.206ZM110.376 37.218V33.158H107.786V31.66H119.182V33.158H116.634V37.218H114.772V33.158H112.238V37.218H110.376ZM124.547 28.902H125.807V24.814H127.543V36.224H125.807V30.4H124.547V28.902ZM128.425 24.59H130.189V36.77H128.425V24.59ZM125.009 32.178V33.718H119.745V25.64H124.841V27.166H121.607V28.874H124.015V30.414H121.607V32.178H125.009ZM130.948 33.774H142.344V35.314H130.948V33.774ZM140.524 25.682V32.626H138.634V30.19H132.124V28.664H138.634V27.208H132.124V25.682H140.524ZM145.195 33.788H149.927V31.422H151.775V33.788H156.591V35.3H145.195V33.788ZM146.917 32.08L145.853 30.708L149.171 28.132C149.829 27.684 149.941 27.432 149.941 27.068V25.388H151.859V27.068C151.859 27.376 151.985 27.628 152.657 28.146L155.933 30.708L154.869 32.08L151.593 29.518C151.327 29.308 151.103 29.112 150.921 28.916C150.725 29.126 150.487 29.322 150.179 29.532L146.917 32.08ZM156.775 33.802H168.171V35.328H156.775V33.802ZM158.021 25.584H166.897V27.082H165.343V30.764H166.883V32.248H158.035V30.764H159.561V27.082H158.021V25.584ZM161.437 30.764H163.481V27.082H161.437V30.764ZM169.854 25.472H178.226V26.97H171.744V28.188H178.226V29.63H171.744V30.862H178.226V32.346H169.854V25.472ZM168.356 35.342V33.83H179.752V35.342H168.356ZM182.471 37.064V32.108H184.305V33.116H188.841V32.108H190.675V37.064H182.471ZM184.305 35.566H188.841V34.544H184.305V35.566ZM180.469 27.516H183.311V26.69H180.469V25.178H185.173V28.93H182.331V29.91H185.453V31.436H180.469V27.516ZM186.223 31.534V24.786H187.959V27.376H188.911V24.59H190.675V31.59H188.911V28.846H187.959V31.534H186.223ZM202.766 24.604H204.642V30.946H202.766V24.604ZM196.606 31.492H204.642V34.936H198.454V35.678H204.88V37.12H196.62V33.606H202.794V32.92H196.606V31.492ZM195.668 30.89L194.408 29.714L196.578 27.39C196.97 26.97 197.068 26.704 197.068 26.452V25.024H198.916V26.452C198.916 26.732 199 26.956 199.406 27.39L201.576 29.714L200.316 30.89L198.146 28.566L197.992 28.398L197.838 28.566L195.668 30.89ZM211.463 37.68C209.419 37.68 207.991 36.574 207.991 35.02C207.991 33.466 209.419 32.416 211.463 32.416C213.507 32.416 214.949 33.466 214.949 35.02C214.949 36.574 213.507 37.68 211.463 37.68ZM211.463 36.238C212.457 36.238 213.101 35.748 213.101 35.02C213.101 34.334 212.457 33.844 211.463 33.844C210.483 33.844 209.839 34.334 209.839 35.02C209.839 35.748 210.483 36.238 211.463 36.238ZM205.751 31.786V30.316H217.147V31.786H205.751ZM207.641 29.812L206.941 28.328L209.979 26.928C210.287 26.774 210.441 26.592 210.511 26.424H207.277V24.912H215.621V26.424H212.387C212.457 26.592 212.597 26.788 212.905 26.928L215.957 28.328L215.257 29.812L212.233 28.412C211.911 28.272 211.659 28.09 211.449 27.894C211.253 28.09 211.001 28.258 210.679 28.412L207.641 29.812Z" fill="#A36A00"/>
<defs>
<filter id="filter0_i_928_38225" x="4.15625" y="0.565035" width="53.6953" height="60.2106" filterUnits="userSpaceOnUse" color-interpolation-filters="sRGB">
<feFlood flood-opacity="0" result="BackgroundImageFix"/>
<feBlend mode="normal" in="SourceGraphic" in2="BackgroundImageFix" result="shape"/>
<feColorMatrix in="SourceAlpha" type="matrix" values="0 0 0 0 0 0 0 0 0 0 0 0 0 0 0 0 0 0 127 0" result="hardAlpha"/>
<feOffset dy="-0.659575"/>
<feGaussianBlur stdDeviation="0.659575"/>
<feComposite in2="hardAlpha" operator="arithmetic" k2="-1" k3="1"/>
<feColorMatrix type="matrix" values="0 0 0 0 0 0 0 0 0 0 0 0 0 0 0 0 0 0 0.25 0"/>
<feBlend mode="normal" in2="shape" result="effect1_innerShadow_928_38225"/>
</filter>
<filter id="filter1_f_928_38225" x="4.08066" y="1.23166" width="53.8582" height="59.5369" filterUnits="userSpaceOnUse" color-interpolation-filters="sRGB">
<feFlood flood-opacity="0" result="BackgroundImageFix"/>
<feBlend mode="normal" in="SourceGraphic" in2="BackgroundImageFix" result="shape"/>
<feGaussianBlur stdDeviation="0.329787" result="effect1_foregroundBlur_928_38225"/>
</filter>
<filter id="filter2_di_928_38225" x="6.38339" y="3.55592" width="49.2391" height="55.02" filterUnits="userSpaceOnUse" color-interpolation-filters="sRGB">
<feFlood flood-opacity="0" result="BackgroundImageFix"/>
<feColorMatrix in="SourceAlpha" type="matrix" values="0 0 0 0 0 0 0 0 0 0 0 0 0 0 0 0 0 0 127 0" result="hardAlpha"/>
<feOffset dy="0.0659574"/>
<feGaussianBlur stdDeviation="0.329787"/>
<feComposite in2="hardAlpha" operator="out"/>
<feColorMatrix type="matrix" values="0 0 0 0 1 0 0 0 0 1 0 0 0 0 1 0 0 0 0.8 0"/>
<feBlend mode="normal" in2="BackgroundImageFix" result="effect1_dropShadow_928_38225"/>
<feBlend mode="normal" in="SourceGraphic" in2="effect1_dropShadow_928_38225" result="shape"/>
<feColorMatrix in="SourceAlpha" type="matrix" values="0 0 0 0 0 0 0 0 0 0 0 0 0 0 0 0 0 0 127 0" result="hardAlpha"/>
<feOffset/>
<feGaussianBlur stdDeviation="0.329787"/>
<feComposite in2="hardAlpha" operator="arithmetic" k2="-1" k3="1"/>
<feColorMatrix type="matrix" values="0 0 0 0 0 0 0 0 0 0 0 0 0 0 0 0 0 0 0.25 0"/>
<feBlend mode="normal" in2="shape" result="effect2_innerShadow_928_38225"/>
</filter>
<filter id="filter3_di_928_38225" x="8.11582" y="5.28464" width="45.7742" height="51.428" filterUnits="userSpaceOnUse" color-interpolation-filters="sRGB">
<feFlood flood-opacity="0" result="BackgroundImageFix"/>
<feColorMatrix in="SourceAlpha" type="matrix" values="0 0 0 0 0 0 0 0 0 0 0 0 0 0 0 0 0 0 127 0" result="hardAlpha"/>
<feOffset/>
<feGaussianBlur stdDeviation="0.329787"/>
<feComposite in2="hardAlpha" operator="out"/>
<feColorMatrix type="matrix" values="0 0 0 0 0 0 0 0 0 0 0 0 0 0 0 0 0 0 0.25 0"/>
<feBlend mode="normal" in2="BackgroundImageFix" result="effect1_dropShadow_928_38225"/>
<feBlend mode="normal" in="SourceGraphic" in2="effect1_dropShadow_928_38225" result="shape"/>
<feColorMatrix in="SourceAlpha" type="matrix" values="0 0 0 0 0 0 0 0 0 0 0 0 0 0 0 0 0 0 127 0" result="hardAlpha"/>
<feOffset/>
<feGaussianBlur stdDeviation="0.659575"/>
<feComposite in2="hardAlpha" operator="arithmetic" k2="-1" k3="1"/>
<feColorMatrix type="matrix" values="0 0 0 0 1 0 0 0 0 1 0 0 0 0 1 0 0 0 0.7 0"/>
<feBlend mode="normal" in2="shape" result="effect2_innerShadow_928_38225"/>
</filter>
<filter id="filter4_i_928_38225" x="15.5508" y="18.2527" width="4.54492" height="4.48228" filterUnits="userSpaceOnUse" color-interpolation-filters="sRGB">
<feFlood flood-opacity="0" result="BackgroundImageFix"/>
<feBlend mode="normal" in="SourceGraphic" in2="BackgroundImageFix" result="shape"/>
<feColorMatrix in="SourceAlpha" type="matrix" values="0 0 0 0 0 0 0 0 0 0 0 0 0 0 0 0 0 0 127 0" result="hardAlpha"/>
<feOffset dy="0.123636"/>
<feGaussianBlur stdDeviation="0.154545"/>
<feComposite in2="hardAlpha" operator="arithmetic" k2="-1" k3="1"/>
<feColorMatrix type="matrix" values="0 0 0 0 0.473991 0 0 0 0 0.300194 0 0 0 0 0 0 0 0 0.5 0"/>
<feBlend mode="normal" in2="shape" result="effect1_innerShadow_928_38225"/>
</filter>
<filter id="filter5_i_928_38225" x="22.1406" y="16.3256" width="4.54492" height="4.48228" filterUnits="userSpaceOnUse" color-interpolation-filters="sRGB">
<feFlood flood-opacity="0" result="BackgroundImageFix"/>
<feBlend mode="normal" in="SourceGraphic" in2="BackgroundImageFix" result="shape"/>
<feColorMatrix in="SourceAlpha" type="matrix" values="0 0 0 0 0 0 0 0 0 0 0 0 0 0 0 0 0 0 127 0" result="hardAlpha"/>
<feOffset dy="0.123636"/>
<feGaussianBlur stdDeviation="0.154545"/>
<feComposite in2="hardAlpha" operator="arithmetic" k2="-1" k3="1"/>
<feColorMatrix type="matrix" values="0 0 0 0 0.473991 0 0 0 0 0.300194 0 0 0 0 0 0 0 0 0.5 0"/>
<feBlend mode="normal" in2="shape" result="effect1_innerShadow_928_38225"/>
</filter>
<filter id="filter6_i_928_38225" x="28.7305" y="15.3843" width="4.54492" height="4.48228" filterUnits="userSpaceOnUse" color-interpolation-filters="sRGB">
<feFlood flood-opacity="0" result="BackgroundImageFix"/>
<feBlend mode="normal" in="SourceGraphic" in2="BackgroundImageFix" result="shape"/>
<feColorMatrix in="SourceAlpha" type="matrix" values="0 0 0 0 0 0 0 0 0 0 0 0 0 0 0 0 0 0 127 0" result="hardAlpha"/>
<feOffset dy="0.123636"/>
<feGaussianBlur stdDeviation="0.154545"/>
<feComposite in2="hardAlpha" operator="arithmetic" k2="-1" k3="1"/>
<feColorMatrix type="matrix" values="0 0 0 0 0.473991 0 0 0 0 0.300194 0 0 0 0 0 0 0 0 0.5 0"/>
<feBlend mode="normal" in2="shape" result="effect1_innerShadow_928_38225"/>
</filter>
<filter id="filter7_i_928_38225" x="35.3164" y="16.3256" width="4.54492" height="4.48228" filterUnits="userSpaceOnUse" color-interpolation-filters="sRGB">
<feFlood flood-opacity="0" result="BackgroundImageFix"/>
<feBlend mode="normal" in="SourceGraphic" in2="BackgroundImageFix" result="shape"/>
<feColorMatrix in="SourceAlpha" type="matrix" values="0 0 0 0 0 0 0 0 0 0 0 0 0 0 0 0 0 0 127 0" result="hardAlpha"/>
<feOffset dy="0.123636"/>
<feGaussianBlur stdDeviation="0.154545"/>
<feComposite in2="hardAlpha" operator="arithmetic" k2="-1" k3="1"/>
<feColorMatrix type="matrix" values="0 0 0 0 0.473991 0 0 0 0 0.300194 0 0 0 0 0 0 0 0 0.5 0"/>
<feBlend mode="normal" in2="shape" result="effect1_innerShadow_928_38225"/>
</filter>
<filter id="filter8_i_928_38225" x="41.9023" y="18.2527" width="4.54492" height="4.48228" filterUnits="userSpaceOnUse" color-interpolation-filters="sRGB">
<feFlood flood-opacity="0" result="BackgroundImageFix"/>
<feBlend mode="normal" in="SourceGraphic" in2="BackgroundImageFix" result="shape"/>
<feColorMatrix in="SourceAlpha" type="matrix" values="0 0 0 0 0 0 0 0 0 0 0 0 0 0 0 0 0 0 127 0" result="hardAlpha"/>
<feOffset dy="0.123636"/>
<feGaussianBlur stdDeviation="0.154545"/>
<feComposite in2="hardAlpha" operator="arithmetic" k2="-1" k3="1"/>
<feColorMatrix type="matrix" values="0 0 0 0 0.473991 0 0 0 0 0.300194 0 0 0 0 0 0 0 0 0.5 0"/>
<feBlend mode="normal" in2="shape" result="effect1_innerShadow_928_38225"/>
</filter>
<linearGradient id="paint0_linear_928_38225" x1="31.0039" y1="0.00012207" x2="31.0039" y2="62.0001" gradientUnits="userSpaceOnUse">
<stop stop-color="#FFEE99"/>
<stop offset="1" stop-color="#FFD971"/>
</linearGradient>
<linearGradient id="paint1_linear_928_38225" x1="12.7439" y1="5.23306" x2="30.0091" y2="29.6667" gradientUnits="userSpaceOnUse">
<stop stop-color="white"/>
<stop offset="1" stop-color="#FFD971" stop-opacity="0"/>
</linearGradient>
<linearGradient id="paint2_linear_928_38225" x1="32.6693" y1="35.3321" x2="40.3359" y2="48.6654" gradientUnits="userSpaceOnUse">
<stop stop-color="#FFD036"/>
<stop offset="0.33" stop-color="#FED148"/>
<stop offset="1" stop-color="#FFE183" stop-opacity="0"/>
</linearGradient>
<linearGradient id="paint3_linear_928_38225" x1="15.6693" y1="54.6654" x2="20.0026" y2="47.3321" gradientUnits="userSpaceOnUse">
<stop stop-color="#957D2D"/>
<stop offset="0.275" stop-color="#C1A342" stop-opacity="0"/>
<stop offset="1" stop-color="#FFD960" stop-opacity="0"/>
</linearGradient>
<linearGradient id="paint4_linear_928_38225" x1="51.0026" y1="29.3321" x2="58.3359" y2="29.3321" gradientUnits="userSpaceOnUse">
<stop offset="0.76" stop-color="#FFD960" stop-opacity="0"/>
<stop offset="1" stop-color="#957D2D"/>
</linearGradient>
<linearGradient id="paint5_linear_928_38225" x1="31.0026" y1="3.33325" x2="31.0026" y2="58.6666" gradientUnits="userSpaceOnUse">
<stop stop-color="#FEBC4C"/>
<stop offset="1" stop-color="#D68E1A"/>
</linearGradient>
<linearGradient id="paint6_linear_928_38225" x1="28.0039" y1="36.3329" x2="42.0039" y2="55.9996" gradientUnits="userSpaceOnUse">
<stop stop-color="#CB8718"/>
<stop offset="1" stop-color="#F2A830"/>
</linearGradient>
<linearGradient id="paint7_linear_928_38225" x1="13.5493" y1="9.4387" x2="46.0604" y2="54.612" gradientUnits="userSpaceOnUse">
<stop stop-color="#FFF0A8"/>
<stop offset="1" stop-color="#FFD53F"/>
</linearGradient>
<linearGradient id="paint8_linear_928_38225" x1="13.5493" y1="9.4387" x2="46.0604" y2="54.612" gradientUnits="userSpaceOnUse">
<stop stop-color="white"/>
<stop offset="1" stop-color="#FFD53F" stop-opacity="0"/>
</linearGradient>
<linearGradient id="paint9_linear_928_38225" x1="13.5493" y1="9.4387" x2="46.0604" y2="54.612" gradientUnits="userSpaceOnUse">
<stop stop-color="white"/>
<stop offset="1" stop-color="#FFD53F" stop-opacity="0"/>
</linearGradient>
<linearGradient id="paint10_linear_928_38225" x1="48.4585" y1="52.5595" x2="35.0052" y2="33.6661" gradientUnits="userSpaceOnUse">
<stop stop-color="white"/>
<stop offset="1" stop-color="#FFD53F" stop-opacity="0"/>
</linearGradient>
<linearGradient id="paint11_linear_928_38225" x1="13.548" y1="9.43866" x2="46.0591" y2="54.612" gradientUnits="userSpaceOnUse">
<stop stop-color="#FFC547"/>
<stop offset="0.455" stop-color="#FFC547"/>
<stop offset="0.785" stop-color="#FFCF42" stop-opacity="0"/>
<stop offset="1" stop-color="#FFD53F" stop-opacity="0"/>
</linearGradient>
<linearGradient id="paint12_linear_928_38225" x1="62" y1="31" x2="238" y2="31" gradientUnits="userSpaceOnUse">
<stop stop-color="#FFF4D5"/>
<stop offset="1" stop-color="#FFF9E9"/>
</linearGradient>
</defs>
</svg>
