<svg width="240" height="56" viewBox="0 0 240 56" fill="none" xmlns="http://www.w3.org/2000/svg">
<path d="M28 28C28 18.0589 36.0589 10 46 10H56V46H46C36.0589 46 28 37.9411 28 28Z" fill="#FFF4D5"/>
<g filter="url(#filter0_i_928_39913)">
<path d="M24.3461 2.05635C26.5501 0.783875 29.2655 0.783876 31.4695 2.05635L48.5082 11.8937C50.7122 13.1661 52.0699 15.5178 52.0699 18.0627V37.7373C52.0699 40.2822 50.7122 42.6339 48.5082 43.9063L31.4695 53.7437C29.2655 55.0161 26.5501 55.0161 24.3461 53.7436L7.3074 43.9063C5.10341 42.6339 3.7457 40.2822 3.7457 37.7373V18.0627C3.7457 15.5177 5.10342 13.1661 7.30741 11.8937L24.3461 2.05635Z" fill="url(#paint0_linear_928_39913)"/>
</g>
<g filter="url(#filter1_f_928_39913)">
<path d="M24.3516 2.65645C26.5556 1.38397 29.271 1.38397 31.475 2.65645L47.9941 12.1937C50.1981 13.4662 51.5558 15.8179 51.5558 18.3628V37.4374C51.5558 39.9823 50.1981 42.334 47.9941 43.6064L31.475 53.1437C29.271 54.4162 26.5556 54.4162 24.3516 53.1437L7.83249 43.6064C5.6285 42.334 4.27079 39.9823 4.27079 37.4374V18.3628C4.27079 15.8179 5.6285 13.4662 7.83249 12.1937L24.3516 2.65645Z" fill="url(#paint1_linear_928_39913)"/>
</g>
<path d="M52.0687 20.7222V37.736C52.0687 40.281 50.711 42.6326 48.507 43.9051L31.4683 53.7424C29.2644 55.0149 26.5489 55.0149 24.3449 53.7424L9.30664 45.06L52.0687 20.7222Z" fill="url(#paint2_linear_928_39913)"/>
<path d="M52.0687 20.7222V37.736C52.0687 40.281 50.711 42.6326 48.507 43.9051L31.4683 53.7424C29.2644 55.0149 26.5489 55.0149 24.3449 53.7424L9.30664 45.06L52.0687 20.7222Z" fill="url(#paint3_linear_928_39913)"/>
<path d="M52.0687 20.7222V37.736C52.0687 40.281 50.711 42.6326 48.507 43.9051L31.4683 53.7424C29.2644 55.0149 26.5489 55.0149 24.3449 53.7424L9.30664 45.06L52.0687 20.7222Z" fill="url(#paint4_linear_928_39913)"/>
<g filter="url(#filter2_di_928_39913)">
<path d="M25.5275 4.37065C26.9968 3.52234 28.8071 3.52234 30.2764 4.37066L47.0915 14.0789C48.5608 14.9272 49.466 16.4949 49.466 18.1916V37.608C49.466 39.3046 48.5608 40.8723 47.0915 41.7207L30.2764 51.4289C28.8071 52.2772 26.9968 52.2772 25.5275 51.4289L8.71239 41.7207C7.24306 40.8723 6.33792 39.3046 6.33792 37.608V18.1916C6.33792 16.4949 7.24306 14.9272 8.71239 14.0789L25.5275 4.37065Z" fill="url(#paint5_linear_928_39913)"/>
</g>
<path d="M49.467 22.1995V37.6077C49.467 39.3043 48.5619 40.8721 47.0926 41.7204L30.2775 51.4286C28.8081 52.2769 26.9979 52.2769 25.5285 51.4286L11.7949 43.4995L49.467 22.1995Z" fill="url(#paint6_linear_928_39913)"/>
<g filter="url(#filter3_di_928_39913)">
<path d="M26.1238 5.827C27.2258 5.19077 28.5835 5.19077 29.6855 5.827L46.129 15.3207C47.231 15.9569 47.9099 17.1327 47.9099 18.4052V37.3925C47.9099 38.665 47.231 39.8408 46.129 40.477L29.6855 49.9707C28.5835 50.6069 27.2258 50.6069 26.1238 49.9707L9.68035 40.477C8.57836 39.8408 7.8995 38.665 7.8995 37.3925V18.4052C7.8995 17.1327 8.57836 15.9569 9.68035 15.3207L26.1238 5.827Z" fill="url(#paint7_linear_928_39913)"/>
</g>
<path d="M26.1238 5.827C27.2258 5.19077 28.5835 5.19077 29.6855 5.827L46.129 15.3207C47.231 15.9569 47.9099 17.1327 47.9099 18.4052V37.3925C47.9099 38.665 47.231 39.8408 46.129 40.477L29.6855 49.9707C28.5835 50.6069 27.2258 50.6069 26.1238 49.9707L9.68035 40.477C8.57836 39.8408 7.8995 38.665 7.8995 37.3925V18.4052C7.8995 17.1327 8.57836 15.9569 9.68035 15.3207L26.1238 5.827Z" fill="url(#paint8_linear_928_39913)"/>
<path d="M26.1238 5.827C27.2258 5.19077 28.5835 5.19077 29.6855 5.827L46.129 15.3207C47.231 15.9569 47.9099 17.1327 47.9099 18.4052V37.3925C47.9099 38.665 47.231 39.8408 46.129 40.477L29.6855 49.9707C28.5835 50.6069 27.2258 50.6069 26.1238 49.9707L9.68035 40.477C8.57836 39.8408 7.8995 38.665 7.8995 37.3925V18.4052C7.8995 17.1327 8.57836 15.9569 9.68035 15.3207L26.1238 5.827Z" fill="url(#paint9_linear_928_39913)"/>
<path d="M29.6887 49.9713C28.5867 50.6076 27.229 50.6076 26.127 49.9713L9.68348 40.4777C8.58149 39.8414 7.90263 38.6656 7.90263 37.3932L7.90263 18.4059C7.90263 17.1334 8.58148 15.9576 9.68348 15.3213L26.127 5.82768C27.229 5.19145 28.5867 5.19145 29.6887 5.82768L46.1321 15.3213C47.2341 15.9576 47.913 17.1334 47.913 18.4059L47.913 37.3932C47.913 38.6656 47.2341 39.8414 46.1321 40.4777L29.6887 49.9713Z" fill="url(#paint10_linear_928_39913)"/>
<path d="M47.9099 23.0613V37.3924C47.9099 38.6649 47.231 39.8407 46.129 40.477L29.6856 49.9706C28.5836 50.6068 27.2258 50.6068 26.1238 49.9706L13.3555 42.5988L47.9099 23.0613Z" fill="url(#paint11_linear_928_39913)"/>
<path d="M13.8806 32.6679C15.6686 30.9639 17.7806 29.7879 17.7806 28.4559C17.7806 27.6399 17.2766 27.0759 16.5566 27.0759C15.9446 27.0759 15.3326 27.4839 15.0686 28.0719L13.5206 27.3759C14.0486 26.1999 15.3086 25.3719 16.5566 25.3719C18.3446 25.3719 19.6046 26.6439 19.6046 28.4559C19.6046 30.2319 18.0806 31.5279 16.6286 32.6679H19.7246V34.2519H14.0006L13.8806 32.6679ZM24.2562 32.7519C25.6122 32.7519 26.4642 31.6239 26.4642 29.8359C26.4642 28.0479 25.6122 26.9199 24.2562 26.9199C22.8882 26.9199 22.0362 28.0479 22.0362 29.8359C22.0362 31.6239 22.8882 32.7519 24.2562 32.7519ZM24.2562 34.3359C21.7722 34.3359 20.2122 32.5959 20.2122 29.8359C20.2122 27.0759 21.7722 25.3359 24.2562 25.3359C26.7282 25.3359 28.2882 27.0759 28.2882 29.8359C28.2882 32.5959 26.7282 34.3359 24.2562 34.3359ZM29.1393 32.6679C30.9273 30.9639 33.0393 29.7879 33.0393 28.4559C33.0393 27.6399 32.5353 27.0759 31.8153 27.0759C31.2033 27.0759 30.5913 27.4839 30.3273 28.0719L28.7793 27.3759C29.3073 26.1999 30.5673 25.3719 31.8153 25.3719C33.6033 25.3719 34.8633 26.6439 34.8633 28.4559C34.8633 30.2319 33.3393 31.5279 31.8873 32.6679H34.9833V34.2519H29.2593L29.1393 32.6679ZM35.8429 32.6679C37.6309 30.9639 39.7429 29.7879 39.7429 28.4559C39.7429 27.6399 39.2389 27.0759 38.5189 27.0759C37.9069 27.0759 37.2949 27.4839 37.0309 28.0719L35.4829 27.3759C36.0109 26.1999 37.2709 25.3719 38.5189 25.3719C40.3069 25.3719 41.5669 26.6439 41.5669 28.4559C41.5669 30.2319 40.0429 31.5279 38.5909 32.6679H41.6869V34.2519H35.9629L35.8429 32.6679Z" fill="#A36A00"/>
<g filter="url(#filter4_i_928_39913)">
<path d="M15.8929 16.5371C16.0115 16.2967 16.3542 16.2967 16.4729 16.5371L16.8456 17.2923C16.8927 17.3877 16.9838 17.4539 17.0891 17.4692L17.9225 17.5903C18.1878 17.6288 18.2937 17.9548 18.1018 18.1419L17.4987 18.7298C17.4225 18.8041 17.3877 18.9111 17.4057 19.016L17.548 19.8461C17.5933 20.1103 17.3161 20.3117 17.0788 20.187L16.3334 19.7951C16.2391 19.7455 16.1266 19.7455 16.0324 19.7951L15.2869 20.187C15.0497 20.3117 14.7724 20.1103 14.8177 19.8461L14.9601 19.016C14.9781 18.9111 14.9433 18.8041 14.8671 18.7298L14.264 18.1419C14.0721 17.9548 14.178 17.6288 14.4432 17.5903L15.2767 17.4692C15.382 17.4539 15.473 17.3877 15.5202 17.2923L15.8929 16.5371Z" fill="#F1A219"/>
<path d="M15.8929 16.5371C16.0115 16.2967 16.3542 16.2967 16.4729 16.5371L16.8456 17.2923C16.8927 17.3877 16.9838 17.4539 17.0891 17.4692L17.9225 17.5903C18.1878 17.6288 18.2937 17.9548 18.1018 18.1419L17.4987 18.7298C17.4225 18.8041 17.3877 18.9111 17.4057 19.016L17.548 19.8461C17.5933 20.1103 17.3161 20.3117 17.0788 20.187L16.3334 19.7951C16.2391 19.7455 16.1266 19.7455 16.0324 19.7951L15.2869 20.187C15.0497 20.3117 14.7724 20.1103 14.8177 19.8461L14.9601 19.016C14.9781 18.9111 14.9433 18.8041 14.8671 18.7298L14.264 18.1419C14.0721 17.9548 14.178 17.6288 14.4432 17.5903L15.2767 17.4692C15.382 17.4539 15.473 17.3877 15.5202 17.2923L15.8929 16.5371Z" fill="#F1A219"/>
</g>
<g filter="url(#filter5_i_928_39913)">
<path d="M21.7542 14.8632C21.8728 14.6229 22.2156 14.6229 22.3342 14.8632L22.7069 15.6185C22.754 15.7139 22.8451 15.7801 22.9504 15.7954L23.7839 15.9165C24.0491 15.955 24.155 16.281 23.9631 16.4681L23.36 17.0559C23.2838 17.1302 23.249 17.2373 23.267 17.3422L23.4094 18.1723C23.4547 18.4364 23.1774 18.6379 22.9401 18.5132L22.1947 18.1212C22.1005 18.0717 21.9879 18.0717 21.8937 18.1212L21.1483 18.5132C20.911 18.6379 20.6337 18.4364 20.679 18.1723L20.8214 17.3422C20.8394 17.2373 20.8046 17.1302 20.7284 17.0559L20.1253 16.4681C19.9334 16.281 20.0393 15.955 20.3045 15.9165L21.138 15.7954C21.2433 15.7801 21.3344 15.7139 21.3815 15.6185L21.7542 14.8632Z" fill="#F1A219"/>
<path d="M21.7542 14.8632C21.8728 14.6229 22.2156 14.6229 22.3342 14.8632L22.7069 15.6185C22.754 15.7139 22.8451 15.7801 22.9504 15.7954L23.7839 15.9165C24.0491 15.955 24.155 16.281 23.9631 16.4681L23.36 17.0559C23.2838 17.1302 23.249 17.2373 23.267 17.3422L23.4094 18.1723C23.4547 18.4364 23.1774 18.6379 22.9401 18.5132L22.1947 18.1212C22.1005 18.0717 21.9879 18.0717 21.8937 18.1212L21.1483 18.5132C20.911 18.6379 20.6337 18.4364 20.679 18.1723L20.8214 17.3422C20.8394 17.2373 20.8046 17.1302 20.7284 17.0559L20.1253 16.4681C19.9334 16.281 20.0393 15.955 20.3045 15.9165L21.138 15.7954C21.2433 15.7801 21.3344 15.7139 21.3815 15.6185L21.7542 14.8632Z" fill="#F1A219"/>
</g>
<g filter="url(#filter6_i_928_39913)">
<path d="M27.6136 14.0261C27.7322 13.7857 28.0749 13.7857 28.1936 14.0261L28.5663 14.7813C28.6134 14.8767 28.7045 14.9429 28.8098 14.9582L29.6432 15.0793C29.9085 15.1179 30.0144 15.4438 29.8225 15.6309L29.2194 16.2188C29.1432 16.2931 29.1084 16.4001 29.1264 16.505L29.2687 17.3351C29.314 17.5993 29.0368 17.8007 28.7995 17.676L28.0541 17.2841C27.9599 17.2346 27.8473 17.2346 27.7531 17.2841L27.0076 17.676C26.7704 17.8007 26.4931 17.5993 26.5384 17.3351L26.6808 16.505C26.6988 16.4001 26.664 16.2931 26.5878 16.2188L25.9847 15.6309C25.7928 15.4438 25.8987 15.1179 26.1639 15.0793L26.9974 14.9582C27.1027 14.9429 27.1938 14.8767 27.2409 14.7813L27.6136 14.0261Z" fill="#F1A219"/>
<path d="M27.6136 14.0261C27.7322 13.7857 28.0749 13.7857 28.1936 14.0261L28.5663 14.7813C28.6134 14.8767 28.7045 14.9429 28.8098 14.9582L29.6432 15.0793C29.9085 15.1179 30.0144 15.4438 29.8225 15.6309L29.2194 16.2188C29.1432 16.2931 29.1084 16.4001 29.1264 16.505L29.2687 17.3351C29.314 17.5993 29.0368 17.8007 28.7995 17.676L28.0541 17.2841C27.9599 17.2346 27.8473 17.2346 27.7531 17.2841L27.0076 17.676C26.7704 17.8007 26.4931 17.5993 26.5384 17.3351L26.6808 16.505C26.6988 16.4001 26.664 16.2931 26.5878 16.2188L25.9847 15.6309C25.7928 15.4438 25.8987 15.1179 26.1639 15.0793L26.9974 14.9582C27.1027 14.9429 27.1938 14.8767 27.2409 14.7813L27.6136 14.0261Z" fill="#F1A219"/>
</g>
<g filter="url(#filter7_i_928_39913)">
<path d="M33.471 14.8632C33.5896 14.6229 33.9324 14.6229 34.051 14.8632L34.4237 15.6185C34.4708 15.7139 34.5619 15.7801 34.6672 15.7954L35.5007 15.9165C35.7659 15.955 35.8718 16.281 35.6799 16.4681L35.0768 17.0559C35.0006 17.1302 34.9658 17.2373 34.9838 17.3422L35.1262 18.1723C35.1715 18.4364 34.8942 18.6379 34.6569 18.5132L33.9115 18.1212C33.8173 18.0717 33.7047 18.0717 33.6105 18.1212L32.8651 18.5132C32.6278 18.6379 32.3505 18.4364 32.3958 18.1723L32.5382 17.3422C32.5562 17.2373 32.5214 17.1302 32.4452 17.0559L31.8421 16.4681C31.6502 16.281 31.7561 15.955 32.0213 15.9165L32.8548 15.7954C32.9601 15.7801 33.0512 15.7139 33.0983 15.6185L33.471 14.8632Z" fill="#F1A219"/>
<path d="M33.471 14.8632C33.5896 14.6229 33.9324 14.6229 34.051 14.8632L34.4237 15.6185C34.4708 15.7139 34.5619 15.7801 34.6672 15.7954L35.5007 15.9165C35.7659 15.955 35.8718 16.281 35.6799 16.4681L35.0768 17.0559C35.0006 17.1302 34.9658 17.2373 34.9838 17.3422L35.1262 18.1723C35.1715 18.4364 34.8942 18.6379 34.6569 18.5132L33.9115 18.1212C33.8173 18.0717 33.7047 18.0717 33.6105 18.1212L32.8651 18.5132C32.6278 18.6379 32.3505 18.4364 32.3958 18.1723L32.5382 17.3422C32.5562 17.2373 32.5214 17.1302 32.4452 17.0559L31.8421 16.4681C31.6502 16.281 31.7561 15.955 32.0213 15.9165L32.8548 15.7954C32.9601 15.7801 33.0512 15.7139 33.0983 15.6185L33.471 14.8632Z" fill="#F1A219"/>
</g>
<g filter="url(#filter8_i_928_39913)">
<path d="M39.3284 16.5371C39.4471 16.2967 39.7898 16.2967 39.9084 16.5371L40.2811 17.2923C40.3282 17.3877 40.4193 17.4539 40.5246 17.4692L41.3581 17.5903C41.6233 17.6288 41.7292 17.9548 41.5373 18.1419L40.9342 18.7298C40.858 18.8041 40.8232 18.9111 40.8412 19.016L40.9836 19.8461C41.0289 20.1103 40.7516 20.3117 40.5144 20.187L39.7689 19.7951C39.6747 19.7455 39.5621 19.7455 39.4679 19.7951L38.7225 20.187C38.4852 20.3117 38.208 20.1103 38.2533 19.8461L38.3956 19.016C38.4136 18.9111 38.3788 18.8041 38.3026 18.7298L37.6995 18.1419C37.5076 17.9548 37.6135 17.6288 37.8788 17.5903L38.7122 17.4692C38.8175 17.4539 38.9086 17.3877 38.9557 17.2923L39.3284 16.5371Z" fill="#F1A219"/>
<path d="M39.3284 16.5371C39.4471 16.2967 39.7898 16.2967 39.9084 16.5371L40.2811 17.2923C40.3282 17.3877 40.4193 17.4539 40.5246 17.4692L41.3581 17.5903C41.6233 17.6288 41.7292 17.9548 41.5373 18.1419L40.9342 18.7298C40.858 18.8041 40.8232 18.9111 40.8412 19.016L40.9836 19.8461C41.0289 20.1103 40.7516 20.3117 40.5144 20.187L39.7689 19.7951C39.6747 19.7455 39.5621 19.7455 39.4679 19.7951L38.7225 20.187C38.4852 20.3117 38.208 20.1103 38.2533 19.8461L38.3956 19.016C38.4136 18.9111 38.3788 18.8041 38.3026 18.7298L37.6995 18.1419C37.5076 17.9548 37.6135 17.6288 37.8788 17.5903L38.7122 17.4692C38.8175 17.4539 38.9086 17.3877 38.9557 17.2923L39.3284 16.5371Z" fill="#F1A219"/>
</g>
<path d="M56.4018 10.4018H222C231.719 10.4018 239.598 18.2808 239.598 28C239.598 37.7192 231.719 45.5982 222 45.5982H56.4018V10.4018Z" fill="url(#paint12_linear_928_39913)"/>
<path d="M56.4018 10.4018H222C231.719 10.4018 239.598 18.2808 239.598 28C239.598 37.7192 231.719 45.5982 222 45.5982H56.4018V10.4018Z" stroke="#FFF4D5" stroke-width="0.803571"/>
<path d="M68.642 34.56C66.744 34.56 65.418 33.585 65.418 32.207C65.418 31.037 66.341 30.192 67.758 29.945V29.23H63.338V27.878H73.92V29.23H69.487V29.932C70.93 30.166 71.879 31.024 71.879 32.207C71.879 33.585 70.54 34.56 68.642 34.56ZM68.642 33.221C69.565 33.221 70.163 32.818 70.163 32.207C70.163 31.609 69.565 31.193 68.642 31.193C67.732 31.193 67.134 31.609 67.134 32.207C67.134 32.818 67.732 33.221 68.642 33.221ZM65.171 27.514L64.495 26.136L67.29 24.784C67.498 24.693 67.628 24.589 67.706 24.485H64.872V23.081H67.784V22.184H69.513V23.081H72.425V24.485H69.578C69.669 24.589 69.799 24.68 70.02 24.784L72.802 26.136L72.126 27.514L69.344 26.162C69.058 26.019 68.824 25.863 68.642 25.694C68.46 25.876 68.226 26.032 67.94 26.162L65.171 27.514ZM81.5924 22.405H83.3214V24.849H84.8684V26.253H83.3214V28.996H81.5924V22.405ZM76.0024 29.516H83.3214V33.975H76.0024V29.516ZM81.6314 30.868H77.7054V32.623H81.6314V30.868ZM80.4874 27.137V28.554H74.5204V22.977H76.2494V27.137H80.4874ZM84.8579 31.05H86.9509V27.748H88.6539V31.05H89.8499V27.748H91.5399V31.05H95.4399V32.454H84.8579V31.05ZM93.9709 23.367V29.607H92.2159V24.784H86.2359V23.367H93.9709ZM95.5983 27.813H106.18V29.178H103.684V30.192H104.737V34.118H103.008V31.544H97.0673V30.192H98.0683V29.178H95.5983V27.813ZM97.6523 24.823C97.6523 23.25 98.9783 22.184 100.876 22.184C102.787 22.184 104.139 23.25 104.139 24.823C104.139 26.331 102.787 27.423 100.876 27.423C98.9783 27.423 97.6523 26.331 97.6523 24.823ZM99.3033 24.823C99.3033 25.538 99.9273 26.045 100.889 26.045C101.851 26.045 102.488 25.538 102.488 24.823C102.488 24.043 101.851 23.575 100.889 23.575C99.9273 23.575 99.3033 24.043 99.3033 24.823ZM99.7973 30.192H101.968V29.178H99.7973V30.192ZM112.631 25.421H114.412V22.418H116.154V29.282H114.412V26.812H112.631V25.421ZM107.509 28.827L106.469 27.605L108.549 25.863C108.9 25.564 108.978 25.33 108.978 25.044V24.901H106.742V23.497H109.004V22.405H110.642V23.497H112.865V24.901H110.616V25.044C110.616 25.33 110.694 25.564 111.045 25.863L113.125 27.605L112.085 28.827L110.005 27.085L109.797 26.89L109.589 27.085L107.509 28.827ZM112.631 34.404C110.811 34.404 109.524 33.338 109.524 31.856C109.524 30.348 110.811 29.295 112.631 29.295C114.464 29.295 115.751 30.348 115.751 31.856C115.751 33.338 114.464 34.404 112.631 34.404ZM112.631 33.026C113.489 33.026 114.061 32.558 114.061 31.856C114.061 31.141 113.489 30.673 112.631 30.673C111.773 30.673 111.227 31.141 111.227 31.856C111.227 32.558 111.773 33.026 112.631 33.026ZM127.576 22.418H129.318V30.439H127.576V22.418ZM121.856 29.958H123.585V32.532H129.435V33.91H121.856V29.958ZM122.948 28.931C121.089 28.931 119.802 27.696 119.802 25.941C119.802 24.173 121.089 22.938 122.948 22.938C124.781 22.938 126.068 24.173 126.068 25.941C126.068 27.696 124.781 28.931 122.948 28.931ZM122.948 27.514C123.819 27.514 124.378 26.89 124.378 25.941C124.378 24.966 123.819 24.342 122.948 24.342C122.064 24.342 121.492 24.966 121.492 25.941C121.492 26.89 122.064 27.514 122.948 27.514ZM135.639 34.599C133.741 34.599 132.415 33.52 132.415 32.038C132.415 30.517 133.741 29.503 135.639 29.503C137.537 29.503 138.876 30.517 138.876 32.038C138.876 33.52 137.537 34.599 135.639 34.599ZM135.639 33.195C136.562 33.195 137.16 32.727 137.16 32.038C137.16 31.362 136.562 30.894 135.639 30.894C134.729 30.894 134.131 31.362 134.131 32.038C134.131 32.727 134.729 33.195 135.639 33.195ZM130.374 28.918V27.54H134.235V25.525H135.951V27.54H140.891V28.918H130.374ZM131.544 24.238V22.834H139.214V26.682H137.472V24.238H131.544ZM149.096 22.418H150.838V33.728H149.096V22.418ZM142.466 30.933L141.166 29.997L143.272 27.046C143.753 26.37 143.844 26.071 143.844 25.564V24.797H141.634V23.393H147.783V24.797H145.573V25.564C145.573 26.071 145.664 26.383 146.132 27.046L148.238 29.997L146.938 30.933L144.832 27.982L144.702 27.8L144.572 27.982L142.466 30.933ZM157.146 34.56C155.248 34.56 153.922 33.481 153.922 31.999C153.922 30.491 155.248 29.464 157.146 29.464C159.044 29.464 160.383 30.491 160.383 31.999C160.383 33.481 159.044 34.56 157.146 34.56ZM157.146 33.156C158.069 33.156 158.667 32.688 158.667 31.999C158.667 31.323 158.069 30.855 157.146 30.855C156.236 30.855 155.638 31.323 155.638 31.999C155.638 32.688 156.236 33.156 157.146 33.156ZM151.868 28.84V27.462H162.437V28.84H151.868ZM153.493 22.652H155.209V25.291H161.137V26.669H153.493V22.652ZM173.482 22.405H175.12V33.715H173.482V22.405ZM170.063 26.526H171.103V22.613H172.702V33.156H171.103V27.93H170.063V26.526ZM165.435 23.354H169.829V27.943H167.112V29.763H170.089V31.18H165.448V26.578H168.165V24.732H165.435V23.354ZM183.794 22.392H185.536V33.741H183.794V22.392ZM177.216 31.102L175.916 30.166L178.035 27.241C178.516 26.578 178.62 26.227 178.62 25.733V23.146H180.323V25.733C180.323 26.253 180.414 26.578 180.895 27.228L183.014 30.166L181.714 31.102L179.595 28.19L179.465 28.008L179.335 28.177L177.216 31.102ZM194.599 22.418H196.328V33.728H194.599V22.418ZM186.942 23.367H193.39V24.732H192.415V29.308H193.39V30.686H186.942V29.308H187.917V24.732H186.942V23.367ZM189.607 29.308H190.738V24.732H189.607V29.308ZM207.79 22.418H209.532V28.307H207.79V22.418ZM202.07 28.814H209.532V32.012H203.786V32.701H209.753V34.04H202.083V30.777H207.816V30.14H202.07V28.814ZM201.199 28.255L200.029 27.163L202.044 25.005C202.408 24.615 202.499 24.368 202.499 24.134V22.808H204.215V24.134C204.215 24.394 204.293 24.602 204.67 25.005L206.685 27.163L205.515 28.255L203.5 26.097L203.357 25.941L203.214 26.097L201.199 28.255ZM215.865 34.56C213.967 34.56 212.641 33.533 212.641 32.09C212.641 30.647 213.967 29.672 215.865 29.672C217.763 29.672 219.102 30.647 219.102 32.09C219.102 33.533 217.763 34.56 215.865 34.56ZM215.865 33.221C216.788 33.221 217.386 32.766 217.386 32.09C217.386 31.453 216.788 30.998 215.865 30.998C214.955 30.998 214.357 31.453 214.357 32.09C214.357 32.766 214.955 33.221 215.865 33.221ZM210.561 29.087V27.722H221.143V29.087H210.561ZM212.316 27.254L211.666 25.876L214.487 24.576C214.773 24.433 214.916 24.264 214.981 24.108H211.978V22.704H219.726V24.108H216.723C216.788 24.264 216.918 24.446 217.204 24.576L220.038 25.876L219.388 27.254L216.58 25.954C216.281 25.824 216.047 25.655 215.852 25.473C215.67 25.655 215.436 25.811 215.137 25.954L212.316 27.254Z" fill="#A36A00"/>
<defs>
<filter id="filter0_i_928_39913" x="3.74609" y="0.508434" width="48.3242" height="54.1896" filterUnits="userSpaceOnUse" color-interpolation-filters="sRGB">
<feFlood flood-opacity="0" result="BackgroundImageFix"/>
<feBlend mode="normal" in="SourceGraphic" in2="BackgroundImageFix" result="shape"/>
<feColorMatrix in="SourceAlpha" type="matrix" values="0 0 0 0 0 0 0 0 0 0 0 0 0 0 0 0 0 0 127 0" result="hardAlpha"/>
<feOffset dy="-0.593617"/>
<feGaussianBlur stdDeviation="0.593617"/>
<feComposite in2="hardAlpha" operator="arithmetic" k2="-1" k3="1"/>
<feColorMatrix type="matrix" values="0 0 0 0 0 0 0 0 0 0 0 0 0 0 0 0 0 0 0.25 0"/>
<feBlend mode="normal" in2="shape" result="effect1_innerShadow_928_39913"/>
</filter>
<filter id="filter1_f_928_39913" x="3.67787" y="1.10853" width="48.4724" height="53.5832" filterUnits="userSpaceOnUse" color-interpolation-filters="sRGB">
<feFlood flood-opacity="0" result="BackgroundImageFix"/>
<feBlend mode="normal" in="SourceGraphic" in2="BackgroundImageFix" result="shape"/>
<feGaussianBlur stdDeviation="0.296809" result="effect1_foregroundBlur_928_39913"/>
</filter>
<filter id="filter2_di_928_39913" x="5.74427" y="3.20012" width="44.3161" height="49.518" filterUnits="userSpaceOnUse" color-interpolation-filters="sRGB">
<feFlood flood-opacity="0" result="BackgroundImageFix"/>
<feColorMatrix in="SourceAlpha" type="matrix" values="0 0 0 0 0 0 0 0 0 0 0 0 0 0 0 0 0 0 127 0" result="hardAlpha"/>
<feOffset dy="0.0593617"/>
<feGaussianBlur stdDeviation="0.296809"/>
<feComposite in2="hardAlpha" operator="out"/>
<feColorMatrix type="matrix" values="0 0 0 0 1 0 0 0 0 1 0 0 0 0 1 0 0 0 0.8 0"/>
<feBlend mode="normal" in2="BackgroundImageFix" result="effect1_dropShadow_928_39913"/>
<feBlend mode="normal" in="SourceGraphic" in2="effect1_dropShadow_928_39913" result="shape"/>
<feColorMatrix in="SourceAlpha" type="matrix" values="0 0 0 0 0 0 0 0 0 0 0 0 0 0 0 0 0 0 127 0" result="hardAlpha"/>
<feOffset/>
<feGaussianBlur stdDeviation="0.296809"/>
<feComposite in2="hardAlpha" operator="arithmetic" k2="-1" k3="1"/>
<feColorMatrix type="matrix" values="0 0 0 0 0 0 0 0 0 0 0 0 0 0 0 0 0 0 0.25 0"/>
<feBlend mode="normal" in2="shape" result="effect2_innerShadow_928_39913"/>
</filter>
<filter id="filter3_di_928_39913" x="7.30677" y="4.75624" width="41.197" height="46.2851" filterUnits="userSpaceOnUse" color-interpolation-filters="sRGB">
<feFlood flood-opacity="0" result="BackgroundImageFix"/>
<feColorMatrix in="SourceAlpha" type="matrix" values="0 0 0 0 0 0 0 0 0 0 0 0 0 0 0 0 0 0 127 0" result="hardAlpha"/>
<feOffset/>
<feGaussianBlur stdDeviation="0.296809"/>
<feComposite in2="hardAlpha" operator="out"/>
<feColorMatrix type="matrix" values="0 0 0 0 0 0 0 0 0 0 0 0 0 0 0 0 0 0 0.25 0"/>
<feBlend mode="normal" in2="BackgroundImageFix" result="effect1_dropShadow_928_39913"/>
<feBlend mode="normal" in="SourceGraphic" in2="effect1_dropShadow_928_39913" result="shape"/>
<feColorMatrix in="SourceAlpha" type="matrix" values="0 0 0 0 0 0 0 0 0 0 0 0 0 0 0 0 0 0 127 0" result="hardAlpha"/>
<feOffset/>
<feGaussianBlur stdDeviation="0.593617"/>
<feComposite in2="hardAlpha" operator="arithmetic" k2="-1" k3="1"/>
<feColorMatrix type="matrix" values="0 0 0 0 1 0 0 0 0 1 0 0 0 0 1 0 0 0 0.7 0"/>
<feBlend mode="normal" in2="shape" result="effect2_innerShadow_928_39913"/>
</filter>
<filter id="filter4_i_928_39913" x="14.166" y="16.3567" width="4.0332" height="3.97944" filterUnits="userSpaceOnUse" color-interpolation-filters="sRGB">
<feFlood flood-opacity="0" result="BackgroundImageFix"/>
<feBlend mode="normal" in="SourceGraphic" in2="BackgroundImageFix" result="shape"/>
<feColorMatrix in="SourceAlpha" type="matrix" values="0 0 0 0 0 0 0 0 0 0 0 0 0 0 0 0 0 0 127 0" result="hardAlpha"/>
<feOffset dy="0.111273"/>
<feGaussianBlur stdDeviation="0.139091"/>
<feComposite in2="hardAlpha" operator="arithmetic" k2="-1" k3="1"/>
<feColorMatrix type="matrix" values="0 0 0 0 0.473991 0 0 0 0 0.300194 0 0 0 0 0 0 0 0 0.5 0"/>
<feBlend mode="normal" in2="shape" result="effect1_innerShadow_928_39913"/>
</filter>
<filter id="filter5_i_928_39913" x="20.0273" y="14.6829" width="4.0332" height="3.97944" filterUnits="userSpaceOnUse" color-interpolation-filters="sRGB">
<feFlood flood-opacity="0" result="BackgroundImageFix"/>
<feBlend mode="normal" in="SourceGraphic" in2="BackgroundImageFix" result="shape"/>
<feColorMatrix in="SourceAlpha" type="matrix" values="0 0 0 0 0 0 0 0 0 0 0 0 0 0 0 0 0 0 127 0" result="hardAlpha"/>
<feOffset dy="0.111273"/>
<feGaussianBlur stdDeviation="0.139091"/>
<feComposite in2="hardAlpha" operator="arithmetic" k2="-1" k3="1"/>
<feColorMatrix type="matrix" values="0 0 0 0 0.473991 0 0 0 0 0.300194 0 0 0 0 0 0 0 0 0.5 0"/>
<feBlend mode="normal" in2="shape" result="effect1_innerShadow_928_39913"/>
</filter>
<filter id="filter6_i_928_39913" x="25.8867" y="13.8457" width="4.0332" height="3.97944" filterUnits="userSpaceOnUse" color-interpolation-filters="sRGB">
<feFlood flood-opacity="0" result="BackgroundImageFix"/>
<feBlend mode="normal" in="SourceGraphic" in2="BackgroundImageFix" result="shape"/>
<feColorMatrix in="SourceAlpha" type="matrix" values="0 0 0 0 0 0 0 0 0 0 0 0 0 0 0 0 0 0 127 0" result="hardAlpha"/>
<feOffset dy="0.111273"/>
<feGaussianBlur stdDeviation="0.139091"/>
<feComposite in2="hardAlpha" operator="arithmetic" k2="-1" k3="1"/>
<feColorMatrix type="matrix" values="0 0 0 0 0.473991 0 0 0 0 0.300194 0 0 0 0 0 0 0 0 0.5 0"/>
<feBlend mode="normal" in2="shape" result="effect1_innerShadow_928_39913"/>
</filter>
<filter id="filter7_i_928_39913" x="31.7441" y="14.6829" width="4.0332" height="3.97944" filterUnits="userSpaceOnUse" color-interpolation-filters="sRGB">
<feFlood flood-opacity="0" result="BackgroundImageFix"/>
<feBlend mode="normal" in="SourceGraphic" in2="BackgroundImageFix" result="shape"/>
<feColorMatrix in="SourceAlpha" type="matrix" values="0 0 0 0 0 0 0 0 0 0 0 0 0 0 0 0 0 0 127 0" result="hardAlpha"/>
<feOffset dy="0.111273"/>
<feGaussianBlur stdDeviation="0.139091"/>
<feComposite in2="hardAlpha" operator="arithmetic" k2="-1" k3="1"/>
<feColorMatrix type="matrix" values="0 0 0 0 0.473991 0 0 0 0 0.300194 0 0 0 0 0 0 0 0 0.5 0"/>
<feBlend mode="normal" in2="shape" result="effect1_innerShadow_928_39913"/>
</filter>
<filter id="filter8_i_928_39913" x="37.6016" y="16.3567" width="4.0332" height="3.97944" filterUnits="userSpaceOnUse" color-interpolation-filters="sRGB">
<feFlood flood-opacity="0" result="BackgroundImageFix"/>
<feBlend mode="normal" in="SourceGraphic" in2="BackgroundImageFix" result="shape"/>
<feColorMatrix in="SourceAlpha" type="matrix" values="0 0 0 0 0 0 0 0 0 0 0 0 0 0 0 0 0 0 127 0" result="hardAlpha"/>
<feOffset dy="0.111273"/>
<feGaussianBlur stdDeviation="0.139091"/>
<feComposite in2="hardAlpha" operator="arithmetic" k2="-1" k3="1"/>
<feColorMatrix type="matrix" values="0 0 0 0 0.473991 0 0 0 0 0.300194 0 0 0 0 0 0 0 0 0.5 0"/>
<feBlend mode="normal" in2="shape" result="effect1_innerShadow_928_39913"/>
</filter>
<linearGradient id="paint0_linear_928_39913" x1="27.9078" y1="0" x2="27.9078" y2="55.8" gradientUnits="userSpaceOnUse">
<stop stop-color="#FFEE99"/>
<stop offset="1" stop-color="#FFD971"/>
</linearGradient>
<linearGradient id="paint1_linear_928_39913" x1="11.4746" y1="4.70978" x2="27.0133" y2="26.7001" gradientUnits="userSpaceOnUse">
<stop stop-color="white"/>
<stop offset="1" stop-color="#FFD971" stop-opacity="0"/>
</linearGradient>
<linearGradient id="paint2_linear_928_39913" x1="29.4066" y1="31.7987" x2="36.3066" y2="43.7987" gradientUnits="userSpaceOnUse">
<stop stop-color="#FFD036"/>
<stop offset="0.33" stop-color="#FED148"/>
<stop offset="1" stop-color="#FFE183" stop-opacity="0"/>
</linearGradient>
<linearGradient id="paint3_linear_928_39913" x1="14.1066" y1="49.1987" x2="18.0066" y2="42.5987" gradientUnits="userSpaceOnUse">
<stop stop-color="#957D2D"/>
<stop offset="0.275" stop-color="#C1A342" stop-opacity="0"/>
<stop offset="1" stop-color="#FFD960" stop-opacity="0"/>
</linearGradient>
<linearGradient id="paint4_linear_928_39913" x1="45.9066" y1="26.3987" x2="52.5066" y2="26.3987" gradientUnits="userSpaceOnUse">
<stop offset="0.76" stop-color="#FFD960" stop-opacity="0"/>
<stop offset="1" stop-color="#957D2D"/>
</linearGradient>
<linearGradient id="paint5_linear_928_39913" x1="27.902" y1="2.99976" x2="27.902" y2="52.7998" gradientUnits="userSpaceOnUse">
<stop stop-color="#FEBC4C"/>
<stop offset="1" stop-color="#D68E1A"/>
</linearGradient>
<linearGradient id="paint6_linear_928_39913" x1="25.2035" y1="32.6995" x2="37.8035" y2="50.3995" gradientUnits="userSpaceOnUse">
<stop stop-color="#CB8718"/>
<stop offset="1" stop-color="#F2A830"/>
</linearGradient>
<linearGradient id="paint7_linear_928_39913" x1="12.1967" y1="8.49483" x2="41.4567" y2="49.1508" gradientUnits="userSpaceOnUse">
<stop stop-color="#FFF0A8"/>
<stop offset="1" stop-color="#FFD53F"/>
</linearGradient>
<linearGradient id="paint8_linear_928_39913" x1="12.1967" y1="8.49483" x2="41.4567" y2="49.1508" gradientUnits="userSpaceOnUse">
<stop stop-color="white"/>
<stop offset="1" stop-color="#FFD53F" stop-opacity="0"/>
</linearGradient>
<linearGradient id="paint9_linear_928_39913" x1="12.1967" y1="8.49483" x2="41.4567" y2="49.1508" gradientUnits="userSpaceOnUse">
<stop stop-color="white"/>
<stop offset="1" stop-color="#FFD53F" stop-opacity="0"/>
</linearGradient>
<linearGradient id="paint10_linear_928_39913" x1="43.6158" y1="47.3035" x2="31.5078" y2="30.2995" gradientUnits="userSpaceOnUse">
<stop stop-color="white"/>
<stop offset="1" stop-color="#FFD53F" stop-opacity="0"/>
</linearGradient>
<linearGradient id="paint11_linear_928_39913" x1="12.1963" y1="8.49478" x2="41.4563" y2="49.1508" gradientUnits="userSpaceOnUse">
<stop stop-color="#FFC547"/>
<stop offset="0.455" stop-color="#FFC547"/>
<stop offset="0.785" stop-color="#FFCF42" stop-opacity="0"/>
<stop offset="1" stop-color="#FFD53F" stop-opacity="0"/>
</linearGradient>
<linearGradient id="paint12_linear_928_39913" x1="56" y1="28" x2="240" y2="28" gradientUnits="userSpaceOnUse">
<stop stop-color="#FFF4D5"/>
<stop offset="1" stop-color="#FFF9E9"/>
</linearGradient>
</defs>
</svg>
