<svg width="218" height="56" viewBox="0 0 218 56" fill="none" xmlns="http://www.w3.org/2000/svg">
<path d="M28 28C28 18.0589 36.0589 10 46 10H56V46H46C36.0589 46 28 37.9411 28 28Z" fill="#FFF4D5"/>
<g filter="url(#filter0_i_928_39885)">
<path d="M24.3383 2.05659C26.5423 0.784119 29.2577 0.78412 31.4617 2.05659L48.5004 11.8939C50.7044 13.1664 52.0621 15.518 52.0621 18.0629V37.7375C52.0621 40.2825 50.7044 42.6341 48.5004 43.9066L31.4617 53.7439C29.2577 55.0164 26.5423 55.0164 24.3383 53.7439L7.29959 43.9066C5.0956 42.6341 3.73789 40.2825 3.73789 37.7375V18.0629C3.73789 15.518 5.0956 13.1664 7.29959 11.8939L24.3383 2.05659Z" fill="url(#paint0_linear_928_39885)"/>
</g>
<g filter="url(#filter1_f_928_39885)">
<path d="M24.3438 2.65669C26.5478 1.38422 29.2632 1.38422 31.4672 2.65669L47.9863 12.194C50.1903 13.4665 51.548 15.8181 51.548 18.363V37.4376C51.548 39.9826 50.1903 42.3342 47.9863 43.6067L31.4672 53.144C29.2632 54.4165 26.5478 54.4165 24.3438 53.144L7.82468 43.6067C5.62069 42.3342 4.26298 39.9826 4.26298 37.4376V18.363C4.26298 15.8181 5.62069 13.4665 7.82468 12.194L24.3438 2.65669Z" fill="url(#paint1_linear_928_39885)"/>
</g>
<path d="M52.0609 20.7224V37.7363C52.0609 40.2812 50.7032 42.6329 48.4992 43.9053L31.4605 53.7426C29.2565 55.0151 26.5411 55.0151 24.3371 53.7426L9.29883 45.0603L52.0609 20.7224Z" fill="url(#paint2_linear_928_39885)"/>
<path d="M52.0609 20.7224V37.7363C52.0609 40.2812 50.7032 42.6329 48.4992 43.9053L31.4605 53.7426C29.2565 55.0151 26.5411 55.0151 24.3371 53.7426L9.29883 45.0603L52.0609 20.7224Z" fill="url(#paint3_linear_928_39885)"/>
<path d="M52.0609 20.7224V37.7363C52.0609 40.2812 50.7032 42.6329 48.4992 43.9053L31.4605 53.7426C29.2565 55.0151 26.5411 55.0151 24.3371 53.7426L9.29883 45.0603L52.0609 20.7224Z" fill="url(#paint4_linear_928_39885)"/>
<g filter="url(#filter2_di_928_39885)">
<path d="M25.5275 4.3709C26.9968 3.52258 28.8071 3.52258 30.2764 4.3709L47.0915 14.0791C48.5608 14.9274 49.466 16.4952 49.466 18.1918V37.6082C49.466 39.3048 48.5608 40.8726 47.0915 41.7209L30.2764 51.4291C28.8071 52.2774 26.9968 52.2774 25.5275 51.4291L8.71239 41.7209C7.24306 40.8726 6.33792 39.3048 6.33792 37.6082V18.1918C6.33792 16.4952 7.24306 14.9274 8.71239 14.0791L25.5275 4.3709Z" fill="url(#paint5_linear_928_39885)"/>
</g>
<path d="M49.467 22.1997V37.6079C49.467 39.3045 48.5619 40.8723 47.0926 41.7206L30.2775 51.4288C28.8081 52.2771 26.9979 52.2771 25.5285 51.4288L11.7949 43.4997L49.467 22.1997Z" fill="url(#paint6_linear_928_39885)"/>
<g filter="url(#filter3_di_928_39885)">
<path d="M26.1199 5.827C27.2219 5.19077 28.5796 5.19077 29.6816 5.827L46.1251 15.3207C47.2271 15.9569 47.906 17.1327 47.906 18.4052V37.3925C47.906 38.665 47.2271 39.8408 46.1251 40.477L29.6816 49.9707C28.5796 50.6069 27.2219 50.6069 26.1199 49.9707L9.67645 40.477C8.57445 39.8408 7.89559 38.665 7.89559 37.3925V18.4052C7.89559 17.1327 8.57445 15.9569 9.67645 15.3207L26.1199 5.827Z" fill="url(#paint7_linear_928_39885)"/>
</g>
<path d="M26.1199 5.827C27.2219 5.19077 28.5796 5.19077 29.6816 5.827L46.1251 15.3207C47.2271 15.9569 47.906 17.1327 47.906 18.4052V37.3925C47.906 38.665 47.2271 39.8408 46.1251 40.477L29.6816 49.9707C28.5796 50.6069 27.2219 50.6069 26.1199 49.9707L9.67645 40.477C8.57445 39.8408 7.89559 38.665 7.89559 37.3925V18.4052C7.89559 17.1327 8.57445 15.9569 9.67645 15.3207L26.1199 5.827Z" fill="url(#paint8_linear_928_39885)"/>
<path d="M26.1199 5.827C27.2219 5.19077 28.5796 5.19077 29.6816 5.827L46.1251 15.3207C47.2271 15.9569 47.906 17.1327 47.906 18.4052V37.3925C47.906 38.665 47.2271 39.8408 46.1251 40.477L29.6816 49.9707C28.5796 50.6069 27.2219 50.6069 26.1199 49.9707L9.67645 40.477C8.57445 39.8408 7.89559 38.665 7.89559 37.3925V18.4052C7.89559 17.1327 8.57445 15.9569 9.67645 15.3207L26.1199 5.827Z" fill="url(#paint9_linear_928_39885)"/>
<path d="M29.6848 49.9713C28.5828 50.6076 27.2251 50.6076 26.1231 49.9713L9.67957 40.4777C8.57758 39.8414 7.89872 38.6656 7.89872 37.3932L7.89872 18.4059C7.89872 17.1334 8.57758 15.9576 9.67957 15.3213L26.1231 5.82768C27.2251 5.19145 28.5828 5.19145 29.6848 5.82768L46.1282 15.3213C47.2302 15.9576 47.9091 17.1334 47.9091 18.4059L47.9091 37.3932C47.9091 38.6656 47.2302 39.8414 46.1282 40.4777L29.6848 49.9713Z" fill="url(#paint10_linear_928_39885)"/>
<path d="M47.906 23.0613V37.3924C47.906 38.6649 47.2271 39.8407 46.1251 40.477L29.6816 49.9706C28.5796 50.6068 27.2219 50.6068 26.1199 49.9706L13.3516 42.5988L47.906 23.0613Z" fill="url(#paint11_linear_928_39885)"/>
<path d="M14.1404 32.6679C15.9284 30.9639 18.0404 29.7879 18.0404 28.4559C18.0404 27.6399 17.5364 27.0759 16.8164 27.0759C16.2044 27.0759 15.5924 27.4839 15.3284 28.0719L13.7804 27.3759C14.3084 26.1999 15.5684 25.3719 16.8164 25.3719C18.6044 25.3719 19.8644 26.6439 19.8644 28.4559C19.8644 30.2319 18.3404 31.5279 16.8884 32.6679H19.9844V34.2519H14.2604L14.1404 32.6679ZM24.516 32.7519C25.872 32.7519 26.724 31.6239 26.724 29.8359C26.724 28.0479 25.872 26.9199 24.516 26.9199C23.148 26.9199 22.296 28.0479 22.296 29.8359C22.296 31.6239 23.148 32.7519 24.516 32.7519ZM24.516 34.3359C22.032 34.3359 20.472 32.5959 20.472 29.8359C20.472 27.0759 22.032 25.3359 24.516 25.3359C26.988 25.3359 28.548 27.0759 28.548 29.8359C28.548 32.5959 26.988 34.3359 24.516 34.3359ZM29.3991 32.6679C31.1871 30.9639 33.2991 29.7879 33.2991 28.4559C33.2991 27.6399 32.7951 27.0759 32.0751 27.0759C31.4631 27.0759 30.8511 27.4839 30.5871 28.0719L29.0391 27.3759C29.5671 26.1999 30.8271 25.3719 32.0751 25.3719C33.8631 25.3719 35.1231 26.6439 35.1231 28.4559C35.1231 30.2319 33.5991 31.5279 32.1471 32.6679H35.2431V34.2519H29.5191L29.3991 32.6679ZM38.9227 34.3239C37.0507 34.3239 35.7427 33.1959 35.7427 31.5879H37.5667C37.5667 32.2479 38.1307 32.7159 38.9227 32.7159C39.8347 32.7159 40.4827 32.1879 40.4827 31.4319C40.4827 30.6279 39.8467 30.0639 38.9467 30.0639H38.7067L37.5187 28.8399L39.3307 26.9439H36.1867V25.3599H41.5747L41.6947 26.9439L40.0627 28.6479C41.3707 29.0199 42.2227 30.0639 42.2227 31.4319C42.2227 33.1359 40.8547 34.3239 38.9227 34.3239Z" fill="#A36A00"/>
<g filter="url(#filter4_i_928_39885)">
<path d="M15.8929 16.5371C16.0115 16.2967 16.3542 16.2967 16.4729 16.5371L16.8456 17.2923C16.8927 17.3877 16.9838 17.4539 17.0891 17.4692L17.9225 17.5903C18.1878 17.6288 18.2937 17.9548 18.1018 18.1419L17.4987 18.7298C17.4225 18.8041 17.3877 18.9111 17.4057 19.016L17.548 19.8461C17.5933 20.1103 17.3161 20.3117 17.0788 20.187L16.3334 19.7951C16.2391 19.7455 16.1266 19.7455 16.0324 19.7951L15.2869 20.187C15.0497 20.3117 14.7724 20.1103 14.8177 19.8461L14.9601 19.016C14.9781 18.9111 14.9433 18.8041 14.8671 18.7298L14.264 18.1419C14.0721 17.9548 14.178 17.6288 14.4432 17.5903L15.2767 17.4692C15.382 17.4539 15.473 17.3877 15.5202 17.2923L15.8929 16.5371Z" fill="#F1A219"/>
<path d="M15.8929 16.5371C16.0115 16.2967 16.3542 16.2967 16.4729 16.5371L16.8456 17.2923C16.8927 17.3877 16.9838 17.4539 17.0891 17.4692L17.9225 17.5903C18.1878 17.6288 18.2937 17.9548 18.1018 18.1419L17.4987 18.7298C17.4225 18.8041 17.3877 18.9111 17.4057 19.016L17.548 19.8461C17.5933 20.1103 17.3161 20.3117 17.0788 20.187L16.3334 19.7951C16.2391 19.7455 16.1266 19.7455 16.0324 19.7951L15.2869 20.187C15.0497 20.3117 14.7724 20.1103 14.8177 19.8461L14.9601 19.016C14.9781 18.9111 14.9433 18.8041 14.8671 18.7298L14.264 18.1419C14.0721 17.9548 14.178 17.6288 14.4432 17.5903L15.2767 17.4692C15.382 17.4539 15.473 17.3877 15.5202 17.2923L15.8929 16.5371Z" fill="#F1A219"/>
</g>
<g filter="url(#filter5_i_928_39885)">
<path d="M21.7542 14.8632C21.8728 14.6229 22.2156 14.6229 22.3342 14.8632L22.7069 15.6185C22.754 15.7139 22.8451 15.7801 22.9504 15.7954L23.7839 15.9165C24.0491 15.955 24.155 16.281 23.9631 16.4681L23.36 17.0559C23.2838 17.1302 23.249 17.2373 23.267 17.3422L23.4094 18.1723C23.4547 18.4364 23.1774 18.6379 22.9401 18.5132L22.1947 18.1212C22.1005 18.0717 21.9879 18.0717 21.8937 18.1212L21.1483 18.5132C20.911 18.6379 20.6337 18.4364 20.679 18.1723L20.8214 17.3422C20.8394 17.2373 20.8046 17.1302 20.7284 17.0559L20.1253 16.4681C19.9334 16.281 20.0393 15.955 20.3045 15.9165L21.138 15.7954C21.2433 15.7801 21.3344 15.7139 21.3815 15.6185L21.7542 14.8632Z" fill="#F1A219"/>
<path d="M21.7542 14.8632C21.8728 14.6229 22.2156 14.6229 22.3342 14.8632L22.7069 15.6185C22.754 15.7139 22.8451 15.7801 22.9504 15.7954L23.7839 15.9165C24.0491 15.955 24.155 16.281 23.9631 16.4681L23.36 17.0559C23.2838 17.1302 23.249 17.2373 23.267 17.3422L23.4094 18.1723C23.4547 18.4364 23.1774 18.6379 22.9401 18.5132L22.1947 18.1212C22.1005 18.0717 21.9879 18.0717 21.8937 18.1212L21.1483 18.5132C20.911 18.6379 20.6337 18.4364 20.679 18.1723L20.8214 17.3422C20.8394 17.2373 20.8046 17.1302 20.7284 17.0559L20.1253 16.4681C19.9334 16.281 20.0393 15.955 20.3045 15.9165L21.138 15.7954C21.2433 15.7801 21.3344 15.7139 21.3815 15.6185L21.7542 14.8632Z" fill="#F1A219"/>
</g>
<g filter="url(#filter6_i_928_39885)">
<path d="M27.6136 14.0261C27.7322 13.7857 28.0749 13.7857 28.1936 14.0261L28.5663 14.7813C28.6134 14.8767 28.7045 14.9429 28.8098 14.9582L29.6432 15.0793C29.9085 15.1179 30.0144 15.4438 29.8225 15.6309L29.2194 16.2188C29.1432 16.2931 29.1084 16.4001 29.1264 16.505L29.2687 17.3351C29.314 17.5993 29.0368 17.8007 28.7995 17.676L28.0541 17.2841C27.9599 17.2346 27.8473 17.2346 27.7531 17.2841L27.0076 17.676C26.7704 17.8007 26.4931 17.5993 26.5384 17.3351L26.6808 16.505C26.6988 16.4001 26.664 16.2931 26.5878 16.2188L25.9847 15.6309C25.7928 15.4438 25.8987 15.1179 26.1639 15.0793L26.9974 14.9582C27.1027 14.9429 27.1938 14.8767 27.2409 14.7813L27.6136 14.0261Z" fill="#F1A219"/>
<path d="M27.6136 14.0261C27.7322 13.7857 28.0749 13.7857 28.1936 14.0261L28.5663 14.7813C28.6134 14.8767 28.7045 14.9429 28.8098 14.9582L29.6432 15.0793C29.9085 15.1179 30.0144 15.4438 29.8225 15.6309L29.2194 16.2188C29.1432 16.2931 29.1084 16.4001 29.1264 16.505L29.2687 17.3351C29.314 17.5993 29.0368 17.8007 28.7995 17.676L28.0541 17.2841C27.9599 17.2346 27.8473 17.2346 27.7531 17.2841L27.0076 17.676C26.7704 17.8007 26.4931 17.5993 26.5384 17.3351L26.6808 16.505C26.6988 16.4001 26.664 16.2931 26.5878 16.2188L25.9847 15.6309C25.7928 15.4438 25.8987 15.1179 26.1639 15.0793L26.9974 14.9582C27.1027 14.9429 27.1938 14.8767 27.2409 14.7813L27.6136 14.0261Z" fill="#F1A219"/>
</g>
<g filter="url(#filter7_i_928_39885)">
<path d="M33.471 14.8632C33.5896 14.6229 33.9324 14.6229 34.051 14.8632L34.4237 15.6185C34.4708 15.7139 34.5619 15.7801 34.6672 15.7954L35.5007 15.9165C35.7659 15.955 35.8718 16.281 35.6799 16.4681L35.0768 17.0559C35.0006 17.1302 34.9658 17.2373 34.9838 17.3422L35.1262 18.1723C35.1715 18.4364 34.8942 18.6379 34.6569 18.5132L33.9115 18.1212C33.8173 18.0717 33.7047 18.0717 33.6105 18.1212L32.8651 18.5132C32.6278 18.6379 32.3505 18.4364 32.3958 18.1723L32.5382 17.3422C32.5562 17.2373 32.5214 17.1302 32.4452 17.0559L31.8421 16.4681C31.6502 16.281 31.7561 15.955 32.0213 15.9165L32.8548 15.7954C32.9601 15.7801 33.0512 15.7139 33.0983 15.6185L33.471 14.8632Z" fill="#F1A219"/>
<path d="M33.471 14.8632C33.5896 14.6229 33.9324 14.6229 34.051 14.8632L34.4237 15.6185C34.4708 15.7139 34.5619 15.7801 34.6672 15.7954L35.5007 15.9165C35.7659 15.955 35.8718 16.281 35.6799 16.4681L35.0768 17.0559C35.0006 17.1302 34.9658 17.2373 34.9838 17.3422L35.1262 18.1723C35.1715 18.4364 34.8942 18.6379 34.6569 18.5132L33.9115 18.1212C33.8173 18.0717 33.7047 18.0717 33.6105 18.1212L32.8651 18.5132C32.6278 18.6379 32.3505 18.4364 32.3958 18.1723L32.5382 17.3422C32.5562 17.2373 32.5214 17.1302 32.4452 17.0559L31.8421 16.4681C31.6502 16.281 31.7561 15.955 32.0213 15.9165L32.8548 15.7954C32.9601 15.7801 33.0512 15.7139 33.0983 15.6185L33.471 14.8632Z" fill="#F1A219"/>
</g>
<g filter="url(#filter8_i_928_39885)">
<path d="M39.3284 16.5371C39.4471 16.2967 39.7898 16.2967 39.9084 16.5371L40.2811 17.2923C40.3282 17.3877 40.4193 17.4539 40.5246 17.4692L41.3581 17.5903C41.6233 17.6288 41.7292 17.9548 41.5373 18.1419L40.9342 18.7298C40.858 18.8041 40.8232 18.9111 40.8412 19.016L40.9836 19.8461C41.0289 20.1103 40.7516 20.3117 40.5144 20.187L39.7689 19.7951C39.6747 19.7455 39.5621 19.7455 39.4679 19.7951L38.7225 20.187C38.4852 20.3117 38.208 20.1103 38.2533 19.8461L38.3956 19.016C38.4136 18.9111 38.3788 18.8041 38.3026 18.7298L37.6995 18.1419C37.5076 17.9548 37.6135 17.6288 37.8788 17.5903L38.7122 17.4692C38.8175 17.4539 38.9086 17.3877 38.9557 17.2923L39.3284 16.5371Z" fill="#F1A219"/>
<path d="M39.3284 16.5371C39.4471 16.2967 39.7898 16.2967 39.9084 16.5371L40.2811 17.2923C40.3282 17.3877 40.4193 17.4539 40.5246 17.4692L41.3581 17.5903C41.6233 17.6288 41.7292 17.9548 41.5373 18.1419L40.9342 18.7298C40.858 18.8041 40.8232 18.9111 40.8412 19.016L40.9836 19.8461C41.0289 20.1103 40.7516 20.3117 40.5144 20.187L39.7689 19.7951C39.6747 19.7455 39.5621 19.7455 39.4679 19.7951L38.7225 20.187C38.4852 20.3117 38.208 20.1103 38.2533 19.8461L38.3956 19.016C38.4136 18.9111 38.3788 18.8041 38.3026 18.7298L37.6995 18.1419C37.5076 17.9548 37.6135 17.6288 37.8788 17.5903L38.7122 17.4692C38.8175 17.4539 38.9086 17.3877 38.9557 17.2923L39.3284 16.5371Z" fill="#F1A219"/>
</g>
<path d="M56.4018 10.4018H200C209.719 10.4018 217.598 18.2808 217.598 28C217.598 37.7192 209.719 45.5982 200 45.5982H56.4018V10.4018Z" fill="url(#paint12_linear_928_39885)"/>
<path d="M56.4018 10.4018H200C209.719 10.4018 217.598 18.2808 217.598 28C217.598 37.7192 209.719 45.5982 200 45.5982H56.4018V10.4018Z" stroke="#FFF4D5" stroke-width="0.803571"/>
<path d="M69.24 34.404C67.42 34.404 66.146 33.338 66.146 31.856C66.146 30.348 67.42 29.295 69.24 29.295C71.086 29.295 72.373 30.348 72.373 31.856C72.373 33.338 71.086 34.404 69.24 34.404ZM69.24 33.026C70.111 33.026 70.67 32.558 70.67 31.856C70.67 31.141 70.111 30.673 69.24 30.673C68.395 30.673 67.836 31.141 67.836 31.856C67.836 32.558 68.395 33.026 69.24 33.026ZM70.293 27.436V28.84H63.299V27.436H65.262V25.655H66.978V27.436H70.293ZM63.936 24.316V22.912H69.747V26.812H68.005V24.316H63.936ZM70.969 29.23V22.405H72.711V25.252H74.089V26.682H72.711V29.23H70.969ZM74.1044 28.853H84.6864V30.244H80.2144V34.131H78.4984V30.244H74.1044V28.853ZM75.7294 28.177L74.9234 26.799L77.8614 25.057C78.3684 24.771 78.4724 24.511 78.4724 24.303V24.225H75.3394V22.821H83.3864V24.225H80.2534V24.303C80.2534 24.511 80.3574 24.771 80.8644 25.057L83.8024 26.799L82.9964 28.177L80.0584 26.435C79.7724 26.279 79.5514 26.097 79.3694 25.928C79.1744 26.097 78.9534 26.279 78.6674 26.435L75.7294 28.177ZM95.823 22.405H97.474V33.715H95.823V22.405ZM93.522 22.587H95.147V33.195H93.522V27.527H92.937C92.677 29.126 91.598 30.192 90.129 30.192C88.465 30.192 87.308 28.788 87.308 26.799C87.308 24.784 88.465 23.367 90.129 23.367C91.611 23.367 92.716 24.485 92.95 26.136H93.522V22.587ZM90.129 28.658C90.87 28.658 91.351 27.917 91.351 26.799C91.351 25.655 90.87 24.914 90.129 24.914C89.414 24.914 88.933 25.655 88.933 26.799C88.933 27.917 89.414 28.658 90.129 28.658ZM99.5564 22.977H107.291V24.355H101.311V26.5H107.291V27.878H99.5564V22.977ZM100.492 34.131V30.361H98.0874V28.97H108.669V30.361H106.303V34.131H104.574V30.361H102.221V34.131H100.492ZM113.651 26.409H114.821V22.613H116.433V33.208H114.821V27.8H113.651V26.409ZM117.252 22.405H118.89V33.715H117.252V22.405ZM114.08 29.451V30.881H109.192V23.38H113.924V24.797H110.921V26.383H113.157V27.813H110.921V29.451H114.08ZM119.594 30.933H130.176V32.363H119.594V30.933ZM128.486 23.419V29.867H126.731V27.605H120.686V26.188H126.731V24.836H120.686V23.419H128.486ZM132.824 30.946H137.218V28.749H138.934V30.946H143.406V32.35H132.824V30.946ZM134.423 29.36L133.435 28.086L136.516 25.694C137.127 25.278 137.231 25.044 137.231 24.706V23.146H139.012V24.706C139.012 24.992 139.129 25.226 139.753 25.707L142.795 28.086L141.807 29.36L138.765 26.981C138.518 26.786 138.31 26.604 138.141 26.422C137.959 26.617 137.738 26.799 137.452 26.994L134.423 29.36ZM143.577 30.959H154.159V32.376H143.577V30.959ZM144.734 23.328H152.976V24.719H151.533V28.138H152.963V29.516H144.747V28.138H146.164V24.719H144.734V23.328ZM147.906 28.138H149.804V24.719H147.906V28.138ZM155.722 23.224H163.496V24.615H157.477V25.746H163.496V27.085H157.477V28.229H163.496V29.607H155.722V23.224ZM154.331 32.389V30.985H164.913V32.389H154.331ZM167.437 33.988V29.386H169.14V30.322H173.352V29.386H175.055V33.988H167.437ZM169.14 32.597H173.352V31.648H169.14V32.597ZM165.578 25.122H168.217V24.355H165.578V22.951H169.946V26.435H167.307V27.345H170.206V28.762H165.578V25.122ZM170.921 28.853V22.587H172.533V24.992H173.417V22.405H175.055V28.905H173.417V26.357H172.533V28.853H170.921ZM186.283 22.418H188.025V28.307H186.283V22.418ZM180.563 28.814H188.025V32.012H182.279V32.701H188.246V34.04H180.576V30.777H186.309V30.14H180.563V28.814ZM179.692 28.255L178.522 27.163L180.537 25.005C180.901 24.615 180.992 24.368 180.992 24.134V22.808H182.708V24.134C182.708 24.394 182.786 24.602 183.163 25.005L185.178 27.163L184.008 28.255L181.993 26.097L181.85 25.941L181.707 26.097L179.692 28.255ZM194.358 34.56C192.46 34.56 191.134 33.533 191.134 32.09C191.134 30.647 192.46 29.672 194.358 29.672C196.256 29.672 197.595 30.647 197.595 32.09C197.595 33.533 196.256 34.56 194.358 34.56ZM194.358 33.221C195.281 33.221 195.879 32.766 195.879 32.09C195.879 31.453 195.281 30.998 194.358 30.998C193.448 30.998 192.85 31.453 192.85 32.09C192.85 32.766 193.448 33.221 194.358 33.221ZM189.054 29.087V27.722H199.636V29.087H189.054ZM190.809 27.254L190.159 25.876L192.98 24.576C193.266 24.433 193.409 24.264 193.474 24.108H190.471V22.704H198.219V24.108H195.216C195.281 24.264 195.411 24.446 195.697 24.576L198.531 25.876L197.881 27.254L195.073 25.954C194.774 25.824 194.54 25.655 194.345 25.473C194.163 25.655 193.929 25.811 193.63 25.954L190.809 27.254Z" fill="#A36A00"/>
<defs>
<filter id="filter0_i_928_39885" x="3.73828" y="0.508678" width="48.3242" height="54.1896" filterUnits="userSpaceOnUse" color-interpolation-filters="sRGB">
<feFlood flood-opacity="0" result="BackgroundImageFix"/>
<feBlend mode="normal" in="SourceGraphic" in2="BackgroundImageFix" result="shape"/>
<feColorMatrix in="SourceAlpha" type="matrix" values="0 0 0 0 0 0 0 0 0 0 0 0 0 0 0 0 0 0 127 0" result="hardAlpha"/>
<feOffset dy="-0.593617"/>
<feGaussianBlur stdDeviation="0.593617"/>
<feComposite in2="hardAlpha" operator="arithmetic" k2="-1" k3="1"/>
<feColorMatrix type="matrix" values="0 0 0 0 0 0 0 0 0 0 0 0 0 0 0 0 0 0 0.25 0"/>
<feBlend mode="normal" in2="shape" result="effect1_innerShadow_928_39885"/>
</filter>
<filter id="filter1_f_928_39885" x="3.67005" y="1.10878" width="48.4724" height="53.5832" filterUnits="userSpaceOnUse" color-interpolation-filters="sRGB">
<feFlood flood-opacity="0" result="BackgroundImageFix"/>
<feBlend mode="normal" in="SourceGraphic" in2="BackgroundImageFix" result="shape"/>
<feGaussianBlur stdDeviation="0.296809" result="effect1_foregroundBlur_928_39885"/>
</filter>
<filter id="filter2_di_928_39885" x="5.74427" y="3.20036" width="44.3161" height="49.518" filterUnits="userSpaceOnUse" color-interpolation-filters="sRGB">
<feFlood flood-opacity="0" result="BackgroundImageFix"/>
<feColorMatrix in="SourceAlpha" type="matrix" values="0 0 0 0 0 0 0 0 0 0 0 0 0 0 0 0 0 0 127 0" result="hardAlpha"/>
<feOffset dy="0.0593617"/>
<feGaussianBlur stdDeviation="0.296809"/>
<feComposite in2="hardAlpha" operator="out"/>
<feColorMatrix type="matrix" values="0 0 0 0 1 0 0 0 0 1 0 0 0 0 1 0 0 0 0.8 0"/>
<feBlend mode="normal" in2="BackgroundImageFix" result="effect1_dropShadow_928_39885"/>
<feBlend mode="normal" in="SourceGraphic" in2="effect1_dropShadow_928_39885" result="shape"/>
<feColorMatrix in="SourceAlpha" type="matrix" values="0 0 0 0 0 0 0 0 0 0 0 0 0 0 0 0 0 0 127 0" result="hardAlpha"/>
<feOffset/>
<feGaussianBlur stdDeviation="0.296809"/>
<feComposite in2="hardAlpha" operator="arithmetic" k2="-1" k3="1"/>
<feColorMatrix type="matrix" values="0 0 0 0 0 0 0 0 0 0 0 0 0 0 0 0 0 0 0.25 0"/>
<feBlend mode="normal" in2="shape" result="effect2_innerShadow_928_39885"/>
</filter>
<filter id="filter3_di_928_39885" x="7.30287" y="4.75624" width="41.197" height="46.2851" filterUnits="userSpaceOnUse" color-interpolation-filters="sRGB">
<feFlood flood-opacity="0" result="BackgroundImageFix"/>
<feColorMatrix in="SourceAlpha" type="matrix" values="0 0 0 0 0 0 0 0 0 0 0 0 0 0 0 0 0 0 127 0" result="hardAlpha"/>
<feOffset/>
<feGaussianBlur stdDeviation="0.296809"/>
<feComposite in2="hardAlpha" operator="out"/>
<feColorMatrix type="matrix" values="0 0 0 0 0 0 0 0 0 0 0 0 0 0 0 0 0 0 0.25 0"/>
<feBlend mode="normal" in2="BackgroundImageFix" result="effect1_dropShadow_928_39885"/>
<feBlend mode="normal" in="SourceGraphic" in2="effect1_dropShadow_928_39885" result="shape"/>
<feColorMatrix in="SourceAlpha" type="matrix" values="0 0 0 0 0 0 0 0 0 0 0 0 0 0 0 0 0 0 127 0" result="hardAlpha"/>
<feOffset/>
<feGaussianBlur stdDeviation="0.593617"/>
<feComposite in2="hardAlpha" operator="arithmetic" k2="-1" k3="1"/>
<feColorMatrix type="matrix" values="0 0 0 0 1 0 0 0 0 1 0 0 0 0 1 0 0 0 0.7 0"/>
<feBlend mode="normal" in2="shape" result="effect2_innerShadow_928_39885"/>
</filter>
<filter id="filter4_i_928_39885" x="14.166" y="16.3567" width="4.0332" height="3.97944" filterUnits="userSpaceOnUse" color-interpolation-filters="sRGB">
<feFlood flood-opacity="0" result="BackgroundImageFix"/>
<feBlend mode="normal" in="SourceGraphic" in2="BackgroundImageFix" result="shape"/>
<feColorMatrix in="SourceAlpha" type="matrix" values="0 0 0 0 0 0 0 0 0 0 0 0 0 0 0 0 0 0 127 0" result="hardAlpha"/>
<feOffset dy="0.111273"/>
<feGaussianBlur stdDeviation="0.139091"/>
<feComposite in2="hardAlpha" operator="arithmetic" k2="-1" k3="1"/>
<feColorMatrix type="matrix" values="0 0 0 0 0.473991 0 0 0 0 0.300194 0 0 0 0 0 0 0 0 0.5 0"/>
<feBlend mode="normal" in2="shape" result="effect1_innerShadow_928_39885"/>
</filter>
<filter id="filter5_i_928_39885" x="20.0273" y="14.6829" width="4.0332" height="3.97944" filterUnits="userSpaceOnUse" color-interpolation-filters="sRGB">
<feFlood flood-opacity="0" result="BackgroundImageFix"/>
<feBlend mode="normal" in="SourceGraphic" in2="BackgroundImageFix" result="shape"/>
<feColorMatrix in="SourceAlpha" type="matrix" values="0 0 0 0 0 0 0 0 0 0 0 0 0 0 0 0 0 0 127 0" result="hardAlpha"/>
<feOffset dy="0.111273"/>
<feGaussianBlur stdDeviation="0.139091"/>
<feComposite in2="hardAlpha" operator="arithmetic" k2="-1" k3="1"/>
<feColorMatrix type="matrix" values="0 0 0 0 0.473991 0 0 0 0 0.300194 0 0 0 0 0 0 0 0 0.5 0"/>
<feBlend mode="normal" in2="shape" result="effect1_innerShadow_928_39885"/>
</filter>
<filter id="filter6_i_928_39885" x="25.8867" y="13.8457" width="4.0332" height="3.97944" filterUnits="userSpaceOnUse" color-interpolation-filters="sRGB">
<feFlood flood-opacity="0" result="BackgroundImageFix"/>
<feBlend mode="normal" in="SourceGraphic" in2="BackgroundImageFix" result="shape"/>
<feColorMatrix in="SourceAlpha" type="matrix" values="0 0 0 0 0 0 0 0 0 0 0 0 0 0 0 0 0 0 127 0" result="hardAlpha"/>
<feOffset dy="0.111273"/>
<feGaussianBlur stdDeviation="0.139091"/>
<feComposite in2="hardAlpha" operator="arithmetic" k2="-1" k3="1"/>
<feColorMatrix type="matrix" values="0 0 0 0 0.473991 0 0 0 0 0.300194 0 0 0 0 0 0 0 0 0.5 0"/>
<feBlend mode="normal" in2="shape" result="effect1_innerShadow_928_39885"/>
</filter>
<filter id="filter7_i_928_39885" x="31.7441" y="14.6829" width="4.0332" height="3.97944" filterUnits="userSpaceOnUse" color-interpolation-filters="sRGB">
<feFlood flood-opacity="0" result="BackgroundImageFix"/>
<feBlend mode="normal" in="SourceGraphic" in2="BackgroundImageFix" result="shape"/>
<feColorMatrix in="SourceAlpha" type="matrix" values="0 0 0 0 0 0 0 0 0 0 0 0 0 0 0 0 0 0 127 0" result="hardAlpha"/>
<feOffset dy="0.111273"/>
<feGaussianBlur stdDeviation="0.139091"/>
<feComposite in2="hardAlpha" operator="arithmetic" k2="-1" k3="1"/>
<feColorMatrix type="matrix" values="0 0 0 0 0.473991 0 0 0 0 0.300194 0 0 0 0 0 0 0 0 0.5 0"/>
<feBlend mode="normal" in2="shape" result="effect1_innerShadow_928_39885"/>
</filter>
<filter id="filter8_i_928_39885" x="37.6016" y="16.3567" width="4.0332" height="3.97944" filterUnits="userSpaceOnUse" color-interpolation-filters="sRGB">
<feFlood flood-opacity="0" result="BackgroundImageFix"/>
<feBlend mode="normal" in="SourceGraphic" in2="BackgroundImageFix" result="shape"/>
<feColorMatrix in="SourceAlpha" type="matrix" values="0 0 0 0 0 0 0 0 0 0 0 0 0 0 0 0 0 0 127 0" result="hardAlpha"/>
<feOffset dy="0.111273"/>
<feGaussianBlur stdDeviation="0.139091"/>
<feComposite in2="hardAlpha" operator="arithmetic" k2="-1" k3="1"/>
<feColorMatrix type="matrix" values="0 0 0 0 0.473991 0 0 0 0 0.300194 0 0 0 0 0 0 0 0 0.5 0"/>
<feBlend mode="normal" in2="shape" result="effect1_innerShadow_928_39885"/>
</filter>
<linearGradient id="paint0_linear_928_39885" x1="27.9" y1="0.000244141" x2="27.9" y2="55.8002" gradientUnits="userSpaceOnUse">
<stop stop-color="#FFEE99"/>
<stop offset="1" stop-color="#FFD971"/>
</linearGradient>
<linearGradient id="paint1_linear_928_39885" x1="11.4668" y1="4.71002" x2="27.0055" y2="26.7003" gradientUnits="userSpaceOnUse">
<stop stop-color="white"/>
<stop offset="1" stop-color="#FFD971" stop-opacity="0"/>
</linearGradient>
<linearGradient id="paint2_linear_928_39885" x1="29.3988" y1="31.799" x2="36.2988" y2="43.799" gradientUnits="userSpaceOnUse">
<stop stop-color="#FFD036"/>
<stop offset="0.33" stop-color="#FED148"/>
<stop offset="1" stop-color="#FFE183" stop-opacity="0"/>
</linearGradient>
<linearGradient id="paint3_linear_928_39885" x1="14.0988" y1="49.199" x2="17.9988" y2="42.599" gradientUnits="userSpaceOnUse">
<stop stop-color="#957D2D"/>
<stop offset="0.275" stop-color="#C1A342" stop-opacity="0"/>
<stop offset="1" stop-color="#FFD960" stop-opacity="0"/>
</linearGradient>
<linearGradient id="paint4_linear_928_39885" x1="45.8988" y1="26.399" x2="52.4988" y2="26.399" gradientUnits="userSpaceOnUse">
<stop offset="0.76" stop-color="#FFD960" stop-opacity="0"/>
<stop offset="1" stop-color="#957D2D"/>
</linearGradient>
<linearGradient id="paint5_linear_928_39885" x1="27.902" y1="3" x2="27.902" y2="52.8" gradientUnits="userSpaceOnUse">
<stop stop-color="#FEBC4C"/>
<stop offset="1" stop-color="#D68E1A"/>
</linearGradient>
<linearGradient id="paint6_linear_928_39885" x1="25.2035" y1="32.6997" x2="37.8035" y2="50.3997" gradientUnits="userSpaceOnUse">
<stop stop-color="#CB8718"/>
<stop offset="1" stop-color="#F2A830"/>
</linearGradient>
<linearGradient id="paint7_linear_928_39885" x1="12.1928" y1="8.49483" x2="41.4528" y2="49.1508" gradientUnits="userSpaceOnUse">
<stop stop-color="#FFF0A8"/>
<stop offset="1" stop-color="#FFD53F"/>
</linearGradient>
<linearGradient id="paint8_linear_928_39885" x1="12.1928" y1="8.49483" x2="41.4528" y2="49.1508" gradientUnits="userSpaceOnUse">
<stop stop-color="white"/>
<stop offset="1" stop-color="#FFD53F" stop-opacity="0"/>
</linearGradient>
<linearGradient id="paint9_linear_928_39885" x1="12.1928" y1="8.49483" x2="41.4528" y2="49.1508" gradientUnits="userSpaceOnUse">
<stop stop-color="white"/>
<stop offset="1" stop-color="#FFD53F" stop-opacity="0"/>
</linearGradient>
<linearGradient id="paint10_linear_928_39885" x1="43.6119" y1="47.3035" x2="31.5039" y2="30.2995" gradientUnits="userSpaceOnUse">
<stop stop-color="white"/>
<stop offset="1" stop-color="#FFD53F" stop-opacity="0"/>
</linearGradient>
<linearGradient id="paint11_linear_928_39885" x1="12.1924" y1="8.49478" x2="41.4524" y2="49.1508" gradientUnits="userSpaceOnUse">
<stop stop-color="#FFC547"/>
<stop offset="0.455" stop-color="#FFC547"/>
<stop offset="0.785" stop-color="#FFCF42" stop-opacity="0"/>
<stop offset="1" stop-color="#FFD53F" stop-opacity="0"/>
</linearGradient>
<linearGradient id="paint12_linear_928_39885" x1="56" y1="28" x2="218" y2="28" gradientUnits="userSpaceOnUse">
<stop stop-color="#FFF4D5"/>
<stop offset="1" stop-color="#FFF9E9"/>
</linearGradient>
</defs>
</svg>
