<svg width="100" height="46" viewBox="0 0 100 46" fill="none" xmlns="http://www.w3.org/2000/svg">
<g clip-path="url(#clip0_1349_27601)">
<path d="M27.3577 19.0384C26.5557 19.0384 25.9043 18.408 25.9043 17.6305V17.0334C25.9043 16.2699 26.5697 15.6255 27.3577 15.6255H27.4996C28.2858 15.6255 28.9513 16.2699 28.9513 17.0334V17.6305C28.9513 18.408 28.2998 19.0384 27.4996 19.0384H27.3577Z" fill="#626262"/>
<path d="M21.4451 33.4414C20.6729 33.4414 20.046 32.8145 20.046 32.044V20.709C19.0794 22.4496 17.1444 25.9134 17.1444 25.9134C16.6611 26.7732 15.9904 27.1742 15.0308 27.1742C14.0711 27.1742 13.4092 26.7697 12.9154 25.9063C12.9154 25.9063 10.8911 22.2728 10.0208 20.709V32.044C10.0208 32.8145 9.39389 33.4414 8.62339 33.4414H8.37298C7.60424 33.4414 6.97559 32.8145 6.97559 32.044V17.655C6.97559 16.4415 7.87917 15.6272 9.21878 15.6272C10.0926 15.6272 10.7983 16.0405 11.2098 16.79C11.2098 16.79 14.2655 22.243 15.0308 23.6124C15.9133 22.0434 18.8535 16.7935 18.8535 16.7935C19.265 16.0423 19.9724 15.6255 20.848 15.6255C22.1894 15.6255 23.0894 16.4398 23.0894 17.6533V32.0423C23.0894 32.8128 22.4625 33.4397 21.692 33.4397H21.4434L21.4451 33.4414Z" fill="#626262"/>
<path d="M27.3525 33.4413C26.568 33.4413 25.9043 32.8004 25.9043 32.0439V21.4881C25.9043 20.7352 26.568 20.0942 27.3525 20.0942H27.5031C28.2876 20.0942 28.9513 20.7352 28.9513 21.4881V32.0439C28.9513 32.8022 28.2893 33.4413 27.5031 33.4413H27.3525Z" fill="#626262"/>
<path d="M45.2931 33.5588C42.2969 33.5588 40.5107 31.9127 40.5107 29.1617V28.885C40.5107 25.1866 43.3511 24.6368 45.0444 24.6368H48.5607C48.5326 23.2096 48.1999 22.7911 46.4085 22.7911H43.4159L42.7767 22.7876C41.9414 22.7876 41.332 22.2378 41.332 21.4778V21.3517C41.332 20.6898 41.7295 19.9771 42.8415 19.9771H46.4085C49.86 19.9771 51.6111 21.6231 51.6111 24.8644V29.5872C51.6111 31.9618 49.7759 33.5605 47.0442 33.5605H45.2913L45.2931 33.5588ZM45.0216 27.4421C44.0358 27.4421 43.5542 27.8133 43.5542 28.5803V29.3473C43.5542 30.1161 43.6855 30.7517 45.2913 30.7517H47.4014C47.9653 30.7517 48.5624 30.3577 48.5624 29.624V27.4438H45.0216V27.4421Z" fill="#626262"/>
<path d="M59.3596 19.9771C62.6762 19.9771 64.5762 21.6214 64.5762 24.3741V24.6508C64.5762 28.3439 61.7358 28.8973 60.0425 28.8973H56.528C56.5525 30.3262 56.8887 30.7465 58.6801 30.7465H62.7865C63.6253 30.7482 64.233 31.2963 64.233 32.0581V32.1824C64.233 32.8443 63.8372 33.5588 62.7252 33.5588H58.6819C55.2287 33.5588 53.4775 31.9127 53.4775 28.6696V24.607C53.4775 22.0224 55.4441 19.9771 58.4647 19.9771H59.3613H59.3596ZM60.0618 26.0902C61.0512 26.0902 61.531 25.4511 61.531 24.6823V24.4179C61.531 23.4951 61.0564 22.7806 59.4524 22.7806H58.2476C57.1531 22.7806 56.5245 23.4951 56.5245 24.4302V26.0902H60.0618Z" fill="#626262"/>
<path d="M33.2101 33.4415C32.4274 33.4415 31.7637 32.8006 31.7637 32.0441V24.3672C31.7637 21.4603 33.2907 19.9858 36.5933 19.9858H38.3111C39.8784 19.9858 39.9589 21.0768 39.9589 21.2957V21.4655C39.9589 21.6862 39.8784 22.7946 38.3111 22.7946H36.4304C35.308 22.7946 34.8089 23.3743 34.8089 24.6719V32.0441C34.8089 32.8023 34.1435 33.4415 33.3607 33.4415H33.2119H33.2101Z" fill="#626262"/>
<path d="M80.7466 11.978C69.8283 11.978 68.0859 17.1754 68.0859 23.5827C68.0859 28.0113 68.9212 31.8638 73.0504 33.8163V18.6726C73.0504 17.6884 73.5004 16.6938 74.9731 16.6938C75.9993 16.6938 76.4476 16.6535 77.2128 17.6482L84.6568 27.3757V18.4379C84.6568 17.1123 85.2032 16.6921 86.2574 16.6921H86.9561C87.8089 16.6921 88.4498 17.2962 88.4498 18.4379V33.8163C92.5772 31.8621 93.4107 28.0131 93.4107 23.5827C93.4107 17.1754 91.6736 11.978 80.7466 11.978Z" fill="#626262"/>
<path d="M76.6299 22.4251V34.8738C77.8329 35.0735 79.1935 35.1803 80.7468 35.1803C82.7291 35.1803 84.4031 35.0087 85.825 34.6882L76.6316 22.4233L76.6299 22.4251Z" fill="#626262"/>
</g>
<defs>
<clipPath id="clip0_1349_27601">
<rect width="88" height="24" fill="white" transform="translate(6 11)"/>
</clipPath>
</defs>
</svg>
