<svg width="21" height="20" viewBox="0 0 21 20" fill="none" xmlns="http://www.w3.org/2000/svg">
<g id="Group">
<path id="Vector" d="M3.486 12.4991H5.15267V16.6658H15.1527V3.33244H5.15267V7.4991H3.486V2.4991C3.486 2.27809 3.5738 2.06613 3.73008 1.90985C3.88636 1.75357 4.09832 1.66577 4.31934 1.66577H15.986C16.207 1.66577 16.419 1.75357 16.5753 1.90985C16.7315 2.06613 16.8193 2.27809 16.8193 2.4991V17.4991C16.8193 17.7201 16.7315 17.9321 16.5753 18.0884C16.419 18.2446 16.207 18.3324 15.986 18.3324H4.31934C4.09832 18.3324 3.88636 18.2446 3.73008 18.0884C3.5738 17.9321 3.486 17.7201 3.486 17.4991V12.4991ZM8.486 9.16577V6.66577L12.6527 9.9991L8.486 13.3324V10.8324H1.81934V9.16577H8.486Z" fill="#A4A4A4"/>
</g>
</svg>
