<svg width="88" height="24" viewBox="0 0 88 24" fill="none" xmlns="http://www.w3.org/2000/svg">
<g clip-path="url(#clip0_3641_45478)">
<path d="M21.3577 8.03868C20.5557 8.03868 19.9043 7.40827 19.9043 6.63077V6.03364C19.9043 5.27015 20.5697 4.62573 21.3577 4.62573H21.4996C22.2858 4.62573 22.9513 5.27015 22.9513 6.03364V6.63077C22.9513 7.40827 22.2998 8.03868 21.4996 8.03868H21.3577Z" fill="#4F4F4F"/>
<path d="M15.4446 22.4417C14.6724 22.4417 14.0455 21.8148 14.0455 21.0443V9.70925C13.0789 11.4499 11.1439 14.9136 11.1439 14.9136C10.6606 15.7734 9.98989 16.1744 9.03027 16.1744C8.07066 16.1744 7.40873 15.7699 6.91491 14.9066C6.91491 14.9066 4.89061 11.273 4.0203 9.70925V21.0443C4.0203 21.8148 3.3934 22.4417 2.62291 22.4417H2.3725C1.60375 22.4417 0.975098 21.8148 0.975098 21.0443V6.65529C0.975098 5.44176 1.87868 4.62748 3.21829 4.62748C4.0921 4.62748 4.7978 5.04075 5.20932 5.79023C5.20932 5.79023 8.26503 11.2432 9.03027 12.6126C9.91284 11.0436 12.853 5.79373 12.853 5.79373C13.2645 5.0425 13.9719 4.62573 14.8475 4.62573C16.1889 4.62573 17.089 5.44001 17.089 6.65354V21.0425C17.089 21.813 16.4621 22.4399 15.6916 22.4399H15.4429L15.4446 22.4417Z" fill="#4F4F4F"/>
<path d="M21.3525 22.4416C20.568 22.4416 19.9043 21.8006 19.9043 21.0442V10.4884C19.9043 9.73539 20.568 9.09448 21.3525 9.09448H21.5031C22.2876 9.09448 22.9513 9.73539 22.9513 10.4884V21.0442C22.9513 21.8024 22.2893 22.4416 21.5031 22.4416H21.3525Z" fill="#4F4F4F"/>
<path d="M39.2921 22.559C36.2959 22.559 34.5098 20.913 34.5098 18.1619V17.8853C34.5098 14.1869 37.3501 13.637 39.0434 13.637H42.5597C42.5317 12.2099 42.199 11.7914 40.4076 11.7914H37.4149L36.7757 11.7879C35.9404 11.7879 35.331 11.238 35.331 10.478V10.3519C35.331 9.69 35.7285 8.97729 36.8405 8.97729H40.4076C43.859 8.97729 45.6101 10.6234 45.6101 13.8647V18.5875C45.6101 20.962 43.775 22.5608 41.0432 22.5608H39.2903L39.2921 22.559ZM39.0207 16.4423C38.0348 16.4423 37.5532 16.8136 37.5532 17.5806V18.3476C37.5532 19.1163 37.6846 19.752 39.2903 19.752H41.4004C41.9643 19.752 42.5614 19.358 42.5614 18.6242V16.4441H39.0207V16.4423Z" fill="#4F4F4F"/>
<path d="M53.3591 8.97729C56.6757 8.97729 58.5757 10.6216 58.5757 13.3744V13.651C58.5757 17.3442 55.7354 17.8975 54.042 17.8975H50.5275C50.552 19.3264 50.8882 19.7467 52.6796 19.7467H56.786C57.6248 19.7485 58.2325 20.2966 58.2325 21.0583V21.1826C58.2325 21.8446 57.8367 22.559 56.7247 22.559H52.6814C49.2282 22.559 47.4771 20.913 47.4771 17.6699V13.6073C47.4771 11.0226 49.4436 8.97729 52.4643 8.97729H53.3608H53.3591ZM54.0613 15.0905C55.0507 15.0905 55.5305 14.4513 55.5305 13.6826V13.4181C55.5305 12.4953 55.0559 11.7808 53.4519 11.7808H52.2471C51.1527 11.7808 50.524 12.4953 50.524 13.4304V15.0905H54.0613Z" fill="#4F4F4F"/>
<path d="M27.2096 22.4415C26.4269 22.4415 25.7632 21.8006 25.7632 21.0441V13.3672C25.7632 10.4603 27.2902 8.98584 30.5928 8.98584H32.3106C33.8779 8.98584 33.9585 10.0768 33.9585 10.2957V10.4655C33.9585 10.6862 33.8779 11.7946 32.3106 11.7946H30.4299C29.3075 11.7946 28.8084 12.3743 28.8084 13.6719V21.0441C28.8084 21.8023 28.143 22.4415 27.3602 22.4415H27.2114H27.2096Z" fill="#4F4F4F"/>
<path d="M74.7461 0.978027C63.8278 0.978027 62.0854 6.17537 62.0854 12.5827C62.0854 17.0113 62.9207 20.8638 67.0499 22.8163V7.67258C67.0499 6.68845 67.4999 5.69381 68.9726 5.69381C69.9988 5.69381 70.4471 5.65353 71.2123 6.64817L78.6563 16.3757V7.43793C78.6563 6.11233 79.2027 5.69206 80.2569 5.69206H80.9556C81.8084 5.69206 82.4493 6.2962 82.4493 7.43793V22.8163C86.5767 20.8621 87.4102 17.0131 87.4102 12.5827C87.4102 6.17537 85.6731 0.978027 74.7461 0.978027Z" fill="#4F4F4F"/>
<path d="M70.6294 11.4252V23.874C71.8324 24.0736 73.193 24.1804 74.7463 24.1804C76.7286 24.1804 78.4026 24.0088 79.8246 23.6883L70.6311 11.4235L70.6294 11.4252Z" fill="#4F4F4F"/>
</g>
<defs>
<clipPath id="clip0_3641_45478">
<rect width="88" height="24" fill="white"/>
</clipPath>
</defs>
</svg>
