<svg width="50" height="12" viewBox="0 0 50 12" fill="none" xmlns="http://www.w3.org/2000/svg">
<g clip-path="url(#clip0_531_25706)">
<mask id="mask0_531_25706" style="mask-type:luminance" maskUnits="userSpaceOnUse" x="0" y="0" width="50" height="12">
<path d="M50 0H0V12H50V0Z" fill="white"/>
</mask>
<g mask="url(#mask0_531_25706)">
<path d="M23.6895 0H21.6733V12H23.6895V6.84375H25.504V4.96875H23.6895V0Z" fill="#02A39F"/>
<path d="M37.2984 0H35.2822V12H37.2984V0Z" fill="#02A39F"/>
<path d="M46.9758 7.78125H49.1935V0.65625H46.9758V2.53125H41.7339V0.65625H39.5161V7.78125H46.9758ZM41.7339 4.40625H46.9758V5.90625H41.7339V4.40625Z" fill="#02A39F"/>
<path d="M50 9.375H38.7097V11.25H50V9.375Z" fill="#02A39F"/>
<path d="M14.0121 0.84375V2.71875H18.4476V5.15625H14.6169V7.03125H18.4476V10.7812H20.4637V0.84375H18.4476H14.0121Z" fill="#02A39F"/>
<path d="M8.46774 0.84375L5.84677 4.78125L3.22581 0.84375H3.02419H0V11.1562H3.02419V6.09375L5.84677 10.2188L8.66935 6.09375V11.1562H11.6935V0.84375H8.66935H8.46774Z" fill="#02A39F"/>
<path d="M30.4436 0.75C28.4396 0.75 26.8146 2.26125 26.8146 4.125V7.5C26.8146 9.36375 28.4396 10.875 30.4436 10.875C32.4476 10.875 34.0726 9.36375 34.0726 7.5V4.125C34.0726 2.26125 32.4476 0.75 30.4436 0.75ZM32.0565 7.5C32.0565 8.32875 31.3347 9 30.4436 9C29.5525 9 28.8307 8.32875 28.8307 7.5V4.125C28.8307 3.29625 29.5525 2.625 30.4436 2.625C31.3347 2.625 32.0565 3.29625 32.0565 4.125V7.5Z" fill="#02A39F"/>
</g>
</g>
<defs>
<clipPath id="clip0_531_25706">
<rect width="50" height="12" fill="white"/>
</clipPath>
</defs>
</svg>
